<?xml version="1.0" encoding="utf-8"?>
<!-- Generator: Adobe Illustrator 25.4.1, SVG Export Plug-In . SVG Version: 6.00 Build 0)  -->
<svg version="1.1" id="Layer_1" xmlns="http://www.w3.org/2000/svg" xmlns:xlink="http://www.w3.org/1999/xlink" x="0px" y="0px"
	 viewBox="0 0 68.4 67.1" style="enable-background:new 0 0 68.4 67.1;" xml:space="preserve">
<style type="text/css">
	.st0{fill:#1B1D62;}
</style>
<g id="Group_33" transform="translate(-21.791 -15.848)">
	<path id="Path_132" class="st0" d="M36.9,80.3c0,0-0.8-5.3-1.1-5.9c-2-0.9-4.2-1.3-6.5-1.3c-2.2-0.1-4.5,0.3-6.4,1.3
		c-0.3,0.7-1.1,5.9-1.1,5.9c2.1,1.8,4.7,2.7,7.4,2.6C32,83,34.7,82,36.9,80.3z"/>
	<path id="Path_133" class="st0" d="M26.6,69.7c0.5,1.4,1.3,2.4,2.7,2.4s2.2-1,2.7-2.4c0.4,0,0.7-0.4,0.9-1.1c0.3-1,0-1.3-0.4-1.4v0
		h0c0.1-0.7,0.1-1.4-0.1-2.1c-0.1-0.3-0.3-0.5-0.6-0.5c-0.5-0.7-1.2-1.1-2.1-1.2c-2.8-0.7-2.8,1.1-2.8,1.1l0,0l0,0l0,0
		c-0.3-0.1-0.7,0.1-0.7,0.5c0,0,0,0.1,0,0.2c0,0.7,0,1.4,0,2.1l0,0c0,0,0,0,0,0c-0.4,0.1-0.7,0.5-0.4,1.4
		C25.9,69.3,26.2,69.8,26.6,69.7z"/>
	<path id="Path_134" class="st0" d="M53.6,80.3c0,0-0.8-5.3-1.1-5.9c-2-0.9-4.2-1.3-6.5-1.3c-2.2-0.1-4.5,0.3-6.5,1.3
		c-0.3,0.7-1.1,5.9-1.1,5.9c2.1,1.8,4.7,2.7,7.4,2.6C48.7,83,51.4,82,53.6,80.3z"/>
	<path id="Path_135" class="st0" d="M42.4,68.7c0.2,0.6,0.5,1.1,0.9,1.1c0.5,1.4,1.3,2.4,2.7,2.4s2.2-1,2.7-2.4
		c0.4,0,0.7-0.4,0.9-1.1c0.3-1,0-1.3-0.4-1.4c0,0,0,0,0,0l0,0c0.1-0.7,0.1-1.4-0.1-2.1c-0.1-0.3-0.3-0.5-0.6-0.5
		c-0.5-0.7-1.2-1.1-2.1-1.2c-2.8-0.7-2.8,1.1-2.8,1.1l0,0l0,0l0,0c-0.3-0.1-0.7,0.1-0.7,0.5c0,0,0,0.1,0,0.2c0,0.7,0,1.4,0,2.1l0,0
		v0C42.4,67.4,42.1,67.7,42.4,68.7z"/>
	<path id="Path_136" class="st0" d="M59.6,74.3c-0.3,0.7-1.1,5.9-1.1,5.9c2.1,1.8,4.7,2.7,7.5,2.6c2.8,0.1,5.5-0.9,7.6-2.6
		c0,0-0.8-5.3-1.1-5.9c-2-0.9-4.2-1.3-6.5-1.4C63.8,72.8,61.5,73.3,59.6,74.3z"/>
	<path id="Path_137" class="st0" d="M62.4,68.6c0.2,0.6,0.5,1.1,0.9,1.1c0.5,1.4,1.3,2.4,2.7,2.4s2.2-1,2.7-2.4c0.4,0,0.7-0.4,0.9-1
		c0.3-1,0-1.3-0.4-1.4v0l0,0c0.1-0.7,0.1-1.4-0.1-2.1c-0.1-0.3-0.3-0.5-0.6-0.5c-0.5-0.7-1.2-1.1-2.1-1.2c-2.8-0.7-2.8,1.1-2.8,1.1
		l0,0l0,0l0,0c-0.3-0.1-0.7,0.1-0.7,0.5c0,0,0,0.1,0,0.1c0,0.7,0,1.4,0,2.1h0c0,0,0,0,0,0C62.4,67.3,62.1,67.6,62.4,68.6z"/>
	<path id="Path_138" class="st0" d="M90.2,80.2c0,0-0.8-5.3-1.1-5.9c-2-0.9-4.2-1.3-6.5-1.3c-2.2-0.1-4.5,0.3-6.4,1.4
		c-0.3,0.7-1.1,5.9-1.1,5.9c2.1,1.8,4.7,2.7,7.4,2.6C85.4,82.9,88.1,82,90.2,80.2z"/>
	<path id="Path_139" class="st0" d="M80,69.7c0.5,1.4,1.3,2.4,2.7,2.4s2.2-1,2.7-2.4c0.4,0,0.7-0.4,0.9-1c0.3-1,0-1.3-0.4-1.4
		c0,0,0,0,0,0l0,0c0.1-0.7,0.1-1.4-0.1-2.1c-0.1-0.3-0.3-0.5-0.6-0.5c-0.5-0.7-1.2-1.1-2.1-1.2c-2.8-0.7-2.8,1.1-2.8,1.1l0,0l0,0
		l0,0c-0.3-0.1-0.7,0.1-0.7,0.5c0,0,0,0.1,0,0.1c-0.1,0.7-0.1,1.4,0,2.1h0v0c-0.4,0.1-0.7,0.5-0.4,1.4C79.3,69.2,79.6,69.7,80,69.7z
		"/>
	<path id="Path_140" class="st0" d="M48,52.1v7.6h16v-7.6h2.8l3.9-10.4H41.4l3.9,10.4H48z"/>
	<path id="Path_141" class="st0" d="M65,32.1l-5.2-1.9l-2.1,7.3l-1-5.2l0.9-2.1h-3.1l0.9,2.1l-1,5.2l-2.1-7.3L47,32.1
		c-0.4,0.9-1.5,8.5-1.5,8.5h21.2C66.7,40.6,65.4,33,65,32.1z"/>
	<path id="Path_142" class="st0" d="M52.2,24.9c0.7,2,1.8,3.3,3.8,3.3s3.1-1.4,3.8-3.3c0.6,0,1-0.6,1.3-1.5c0.4-1.3,0-1.8-0.6-2
		c0,0,0,0,0,0c0.1-1,0.1-2-0.1-2.9c-0.1-0.4-0.4-0.7-0.8-0.7c-0.6-1.1-2.1-1.5-2.9-1.6c-3.9-0.9-4,1.5-4,1.5l0,0l0,0l0,0
		c-0.5-0.1-0.9,0.2-1,0.7c0,0.1,0,0.1,0,0.2c-0.1,1-0.1,1.9,0,2.9c0,0,0,0,0,0c-0.6,0.2-1,0.6-0.6,2C51.2,24.3,51.7,24.9,52.2,24.9z
		"/>
</g>
</svg>
