<svg xmlns="http://www.w3.org/2000/svg" viewBox="0 0 537.7 151.66"><defs><style>.cls-1{fill:#fff;}</style></defs><g id="Layer_2" data-name="Layer 2"><rect class="cls-1" width="537.7" height="151.66"/><path d="M140.22,42.19a7.8,7.8,0,0,0-.9-2.67,6.87,6.87,0,0,0-1.74-2,7.63,7.63,0,0,0-2.46-1.26,10.08,10.08,0,0,0-3.07-.44,10.9,10.9,0,0,0-3.46.51,8.78,8.78,0,0,0-4.67,3.6,13.08,13.08,0,0,0-1.32,2.74,16.64,16.64,0,0,0-.75,3.11,22.86,22.86,0,0,0-.24,3.32,20.85,20.85,0,0,0,.25,3.17,14.14,14.14,0,0,0,.78,3A12.42,12.42,0,0,0,124,57.83a8.73,8.73,0,0,0,2,2.09,8.87,8.87,0,0,0,2.67,1.37,10.85,10.85,0,0,0,3.4.5,7.93,7.93,0,0,0,5.85-2.14,10.28,10.28,0,0,0,2.65-6.18H151a18.79,18.79,0,0,1-1.93,7,17.33,17.33,0,0,1-4.1,5.3,18.09,18.09,0,0,1-5.82,3.38,20.8,20.8,0,0,1-7.08,1.19,24.74,24.74,0,0,1-9-1.54,18,18,0,0,1-6.58-4.33,18.53,18.53,0,0,1-4-6.7A25.74,25.74,0,0,1,111,49.09a26.53,26.53,0,0,1,1.37-8.74,19.17,19.17,0,0,1,4-6.87A18,18,0,0,1,123,29a23.72,23.72,0,0,1,9-1.6,21.83,21.83,0,0,1,4.43.44,20.43,20.43,0,0,1,4.15,1.29,18.59,18.59,0,0,1,3.68,2.11,16.21,16.21,0,0,1,3,2.89,15.79,15.79,0,0,1,2.17,3.67,15.55,15.55,0,0,1,1.13,4.4Z"/><path d="M152.67,48.93a27.23,27.23,0,0,1,.56-5.61A22.11,22.11,0,0,1,155,38.23a19.27,19.27,0,0,1,2.89-4.37,17.32,17.32,0,0,1,4.1-3.39,20.31,20.31,0,0,1,5.33-2.21,25.5,25.5,0,0,1,6.59-.79,25.76,25.76,0,0,1,6.61.79,20.28,20.28,0,0,1,5.37,2.23A17.49,17.49,0,0,1,190,33.91a19.25,19.25,0,0,1,2.94,4.37,22.34,22.34,0,0,1,1.75,5.09,26.89,26.89,0,0,1,.57,5.56,27.23,27.23,0,0,1-.57,5.61,22.31,22.31,0,0,1-1.74,5.07A18.81,18.81,0,0,1,190,63.92a17.38,17.38,0,0,1-4.13,3.35,21.18,21.18,0,0,1-5.39,2.17,26.76,26.76,0,0,1-6.63.77,26,26,0,0,1-6.59-.78,20.61,20.61,0,0,1-5.33-2.18,17.21,17.21,0,0,1-4.1-3.36A19,19,0,0,1,155,59.57a21.71,21.71,0,0,1-1.72-5.06A26.94,26.94,0,0,1,152.67,48.93Zm10.59,0a19.47,19.47,0,0,0,.26,3.14,14.54,14.54,0,0,0,.81,3,13,13,0,0,0,1.4,2.63,9,9,0,0,0,2,2.1,9.37,9.37,0,0,0,2.7,1.41,10.67,10.67,0,0,0,3.41.51,11.07,11.07,0,0,0,3.48-.51,9.4,9.4,0,0,0,2.75-1.41,8.93,8.93,0,0,0,2.06-2.1,12.5,12.5,0,0,0,1.4-2.63,15.22,15.22,0,0,0,.82-3,19.91,19.91,0,0,0,0-6.29,15.42,15.42,0,0,0-.82-3,12.72,12.72,0,0,0-1.4-2.66A9.29,9.29,0,0,0,180.09,38a9.4,9.4,0,0,0-2.75-1.41,10.78,10.78,0,0,0-3.48-.52,10.39,10.39,0,0,0-3.41.52,9,9,0,0,0-4.72,3.55,13.21,13.21,0,0,0-1.4,2.66,14.73,14.73,0,0,0-.81,3A19.59,19.59,0,0,0,163.26,48.93Z"/><path d="M199,28.39h10.51l15.74,25.49V28.39h10.18V69.45H224.84L209.19,44V69.45H199Z"/><path d="M271.17,28.39v8.26H251.82v7.64h16.74v8.17H251.82v17H241.31V28.39Z"/><path d="M306.08,28.39v8.26h-20.7v7.72h19.18v8.09H285.38v8.83h20.78v8.16H274.87V28.39Z"/><path d="M331.84,28.39a20.16,20.16,0,0,1,5.86.8,13.24,13.24,0,0,1,4.46,2.29A10.09,10.09,0,0,1,345,35.13,11.55,11.55,0,0,1,346,40a19.11,19.11,0,0,1-.21,2.9,11.38,11.38,0,0,1-.69,2.55,9.13,9.13,0,0,1-1.27,2.2,9.66,9.66,0,0,1-2,1.85,6.85,6.85,0,0,1,1.5,1.55,7.91,7.91,0,0,1,.92,1.81,13.23,13.23,0,0,1,.55,2.06c.13.72.23,1.47.31,2.25.06,1.17.1,2.31.13,3.39a20.26,20.26,0,0,0,.32,3.16,12.83,12.83,0,0,0,.91,2.94,9.88,9.88,0,0,0,1.93,2.79H337.22a7.34,7.34,0,0,1-1.34-2.35,14.59,14.59,0,0,1-.59-2.61c-.13-.91-.22-1.86-.27-2.84a28.35,28.35,0,0,0-.33-3c-.11-.67-.24-1.31-.4-1.92a5.14,5.14,0,0,0-.72-1.61A3.49,3.49,0,0,0,332.26,54a5.06,5.06,0,0,0-2.19-.41h-8.83v15.9H310.62V28.39Zm-3.62,17.17a26,26,0,0,0,2.68-.14,7.59,7.59,0,0,0,2.32-.61,3.9,3.9,0,0,0,1.63-1.34,4.15,4.15,0,0,0,.6-2.36,5,5,0,0,0-.32-1.83,3.62,3.62,0,0,0-1-1.41,4.39,4.39,0,0,0-1.64-.9,7.22,7.22,0,0,0-2.3-.32h-9v8.91Z"/><path d="M381.72,28.39v8.26H361v7.72H380.2v8.09H361v8.83H381.8v8.16H350.51V28.39Z"/><path d="M386.18,28.39h10.51l15.74,25.49V28.39h10.18V69.45H412L396.37,44V69.45H386.18Z"/><path d="M455.84,42.19a7.8,7.8,0,0,0-.9-2.67,6.73,6.73,0,0,0-1.74-2,7.53,7.53,0,0,0-2.46-1.26,10,10,0,0,0-3.07-.44,10.9,10.9,0,0,0-3.46.51,8.7,8.7,0,0,0-4.66,3.6,13.11,13.11,0,0,0-1.33,2.74,16.64,16.64,0,0,0-.75,3.11,24.36,24.36,0,0,0-.23,3.32,20.85,20.85,0,0,0,.24,3.17,15.49,15.49,0,0,0,.78,3,12.42,12.42,0,0,0,1.36,2.61,9.14,9.14,0,0,0,2,2.09,8.87,8.87,0,0,0,2.67,1.37,10.9,10.9,0,0,0,3.4.5,7.91,7.91,0,0,0,5.85-2.14,10.22,10.22,0,0,0,2.65-6.18h10.44a19.18,19.18,0,0,1-1.93,7,17.65,17.65,0,0,1-4.1,5.3,18.3,18.3,0,0,1-5.82,3.38,20.9,20.9,0,0,1-7.09,1.19,24.78,24.78,0,0,1-9-1.54,18.11,18.11,0,0,1-6.58-4.33,18.67,18.67,0,0,1-4-6.7,26,26,0,0,1-1.37-8.63A26.79,26.79,0,0,1,428,40.35a19.31,19.31,0,0,1,4-6.87A18.08,18.08,0,0,1,438.63,29a23.75,23.75,0,0,1,9-1.6,21.92,21.92,0,0,1,4.44.44,20.34,20.34,0,0,1,4.14,1.29,18.59,18.59,0,0,1,3.68,2.11,15.56,15.56,0,0,1,6.33,11Z"/><path d="M501.6,28.39v8.26H480.9v7.72h19.18v8.09H480.9v8.83h20.78v8.16h-31.3V28.39Z"/><path d="M123.38,83.34v15.9h15.16V83.34h10.51v41.05H138.54v-16.9H123.38v16.9H112.86v-41Z"/><path d="M179.84,115.23H166.2L163,124.39H152l15.48-41h11.28l15.46,41.05H183Zm-11.28-6.73h8.92L173.1,95.78Z"/><path d="M207.75,83.34v32.47h18.61v8.58H197.15v-41Z"/><path d="M240.3,83.34v32.47h18.61v8.58H229.7v-41Z"/><path class="cls-1" d="M73.25,27.47h28V125.7H3V27.47H71.14a15.78,15.78,0,0,0-3,1.89q-21.57,21.47-43,43a6.27,6.27,0,0,0-1.54,2.37,5.41,5.41,0,0,0,1.62,5.9q21.48,21.43,42.92,42.9a10.41,10.41,0,0,0,.78.71,4.83,4.83,0,0,0,6,.46A27.32,27.32,0,0,0,80,119.5c1.55-2.09.87-4.67-1.25-6.8Q61.08,95,43.37,77.31a7.92,7.92,0,0,0-1.19-.75c.64-.5,1-.7,1.24-1L78.55,40.46a12.66,12.66,0,0,0,1.15-1.28,5.1,5.1,0,0,0,0-6.31C77.78,30.79,76.06,28.46,73.25,27.47Z"/><path d="M73.25,27.47c2.81,1,4.53,3.32,6.4,5.4a5.1,5.1,0,0,1,0,6.31,12.66,12.66,0,0,1-1.15,1.28L43.42,75.59c-.27.27-.6.47-1.24,1a7.92,7.92,0,0,1,1.19.75Q61.09,95,78.78,112.7c2.12,2.13,2.8,4.71,1.25,6.8a27.32,27.32,0,0,1-5.23,5.24,4.83,4.83,0,0,1-6-.46,10.41,10.41,0,0,1-.78-.71q-21.45-21.45-42.92-42.9a5.41,5.41,0,0,1-1.62-5.9,6.27,6.27,0,0,1,1.54-2.37q21.48-21.57,43.05-43a15.78,15.78,0,0,1,3-1.89Z"/></g></svg>