<svg xmlns="http://www.w3.org/2000/svg" viewBox="0 0 537.7 151.66"><defs><style>.cls-1{fill:#fff;}</style></defs><g id="Layer_2" data-name="Layer 2"><rect class="cls-1" width="537.7" height="151.66"/><path d="M110.33,28.48v8.25H89.63v7.73h19.18v8.09H89.63v8.83h20.78v8.15H79.11v-41Z"/><path d="M137.26,48.17l14,21.36H139l-8-12.28-8,12.28h-12l14-21.11-13-19.94h12.2l7.06,10.94,7.15-10.94H150.3Z"/><path d="M164,28.48V44.37h15.15V28.48h10.52V69.53H179.15V52.63H164v16.9H153.48v-41Z"/><path d="M206.57,28.48V69.53H196.14v-41Z"/><path d="M229.78,28.48l3,0c1.07,0,2.14.08,3.2.18a23.8,23.8,0,0,1,3,.5,8.47,8.47,0,0,1,2.5,1,14.6,14.6,0,0,1,2.12,1.56,10.78,10.78,0,0,1,1.8,2.06,10.26,10.26,0,0,1,1.24,2.53,9.53,9.53,0,0,1,.46,3,10,10,0,0,1-.33,2.62,9.4,9.4,0,0,1-.92,2.26,9.72,9.72,0,0,1-1.41,1.88,10.59,10.59,0,0,1-1.79,1.48,11.69,11.69,0,0,1,2.52,1.63,10.26,10.26,0,0,1,2,2.2,10.08,10.08,0,0,1,1.28,2.64,9.67,9.67,0,0,1,.45,3,11.62,11.62,0,0,1-.42,3.09A12.31,12.31,0,0,1,247.23,63a13,13,0,0,1-2,2.59,12.56,12.56,0,0,1-2.77,2.06,14.5,14.5,0,0,1-3.5,1.37,16.84,16.84,0,0,1-4.19.49H213v-41Zm-.17,16.32a17.24,17.24,0,0,0,3.2-.25,6.34,6.34,0,0,0,2.16-.79,3.24,3.24,0,0,0,1.24-1.34,4.31,4.31,0,0,0,.39-1.91,4.09,4.09,0,0,0-.56-2.3A3.23,3.23,0,0,0,234.53,37a6.93,6.93,0,0,0-2.22-.46c-.85,0-1.75-.07-2.7-.07h-6V44.8Zm2.7,16.74a6.94,6.94,0,0,0,4.45-1.23,4.44,4.44,0,0,0,1.52-3.66,3.7,3.7,0,0,0-.61-2.21A4.45,4.45,0,0,0,236,53.07a7.74,7.74,0,0,0-2.27-.69,18,18,0,0,0-2.55-.18h-7.58v9.34Z"/><path d="M264,28.48V69.53H253.6v-41Z"/><path d="M268.08,36.73V28.48h32.64v8.25H289.6v32.8H279V36.73Z"/><path d="M315.26,28.48V69.53H304.82v-41Z"/><path d="M319.63,49a27.14,27.14,0,0,1,.57-5.6,21.55,21.55,0,0,1,1.71-5.1,19.25,19.25,0,0,1,2.9-4.36,17.55,17.55,0,0,1,4.09-3.4,20.8,20.8,0,0,1,5.33-2.21,28,28,0,0,1,13.21,0,20.28,20.28,0,0,1,5.37,2.23A18.16,18.16,0,0,1,357,34a19.42,19.42,0,0,1,2.94,4.38,21.69,21.69,0,0,1,1.74,5.09,26.8,26.8,0,0,1,.58,5.55,27.23,27.23,0,0,1-.58,5.61,21.5,21.5,0,0,1-1.73,5.07A19,19,0,0,1,357,64a17.48,17.48,0,0,1-4.14,3.35,20.74,20.74,0,0,1-5.38,2.16,26.82,26.82,0,0,1-6.63.77,26.09,26.09,0,0,1-6.6-.78,20.41,20.41,0,0,1-5.33-2.18A17.36,17.36,0,0,1,324.81,64a18.85,18.85,0,0,1-2.9-4.33,21.09,21.09,0,0,1-1.71-5.06A26.94,26.94,0,0,1,319.63,49Zm10.6,0a18.43,18.43,0,0,0,.26,3.15,14.72,14.72,0,0,0,.81,3,12.6,12.6,0,0,0,1.39,2.62,9.24,9.24,0,0,0,2,2.11,9.61,9.61,0,0,0,2.7,1.41,10.67,10.67,0,0,0,3.41.51,11.16,11.16,0,0,0,3.48-.51,10,10,0,0,0,2.75-1.41,9.33,9.33,0,0,0,2.05-2.11,12.22,12.22,0,0,0,1.41-2.62,14.72,14.72,0,0,0,.81-3,19.21,19.21,0,0,0,0-6.3,14.73,14.73,0,0,0-.81-3,13,13,0,0,0-1.41-2.66,9.21,9.21,0,0,0-2.05-2.13,9.55,9.55,0,0,0-2.75-1.42,11.16,11.16,0,0,0-3.48-.51,10.67,10.67,0,0,0-3.41.51,9.25,9.25,0,0,0-4.73,3.55,13.45,13.45,0,0,0-1.39,2.66,14.73,14.73,0,0,0-.81,3A18.6,18.6,0,0,0,330.23,49Z"/><path d="M366,28.48h10.52L392.21,54V28.48H402.4V69.53H391.8l-15.65-25.4v25.4H366Z"/><path d="M269.4,83.42v15.9h15.15V83.42h10.52v41.06H284.55v-16.9H269.4v16.9H258.88V83.42Z"/><path d="M325.85,115.32H312.22L309,124.48H298l15.48-41.06h11.28l15.46,41.06H329Zm-11.27-6.74h8.91l-4.37-12.71Z"/><path d="M353.77,83.42v32.47h18.6v8.59h-29.2V83.42Z"/><path d="M386.32,83.42v32.47h18.6v8.59h-29.2V83.42Z"/><path d="M457.18,27.75a7.46,7.46,0,0,1,3.18,2q21.28,21.32,42.58,42.6c2.81,2.8,2.82,5.93,0,8.71q-21.39,21.41-42.79,42.79c-2.15,2.15-4.8,2.59-7.12,1.2a11.31,11.31,0,0,1-2.06-1.85c-.8-.78-1.61-1.55-2.35-2.38a5.38,5.38,0,0,1-.21-7,12.52,12.52,0,0,1,1.1-1.2l34.79-34.8c1.08-1.08,1.08-1.08,0-2.12q-17.46-17.47-34.93-34.93a6.06,6.06,0,0,1-2.1-5,5.11,5.11,0,0,1,1.43-3.16c1.12-1.18,2.29-2.31,3.44-3.46a6.84,6.84,0,0,1,2.48-1.39Z"/></g></svg>