<?xml version="1.0" encoding="utf-8"?>
<!-- Generator: Adobe Illustrator 25.4.1, SVG Export Plug-In . SVG Version: 6.00 Build 0)  -->
<svg version="1.1" id="Text" xmlns="http://www.w3.org/2000/svg" xmlns:xlink="http://www.w3.org/1999/xlink" x="0px" y="0px"
	 viewBox="0 0 600 710" style="enable-background:new 0 0 600 710;" xml:space="preserve">
<style type="text/css">
	.st0{display:none;}
	.st1{display:inline;fill-rule:evenodd;clip-rule:evenodd;fill:#E62A3A;}
	.st2{display:inline;fill-rule:evenodd;clip-rule:evenodd;fill:#B5B5B5;}
	.st3{display:inline;fill-rule:evenodd;clip-rule:evenodd;fill:#A5A5A5;}
	.st4{display:inline;fill-rule:evenodd;clip-rule:evenodd;fill:#9C9CCE;}
	.st5{display:inline;fill-rule:evenodd;clip-rule:evenodd;fill:#9CCECE;}
	.st6{display:inline;fill-rule:evenodd;clip-rule:evenodd;fill:#C5C5C5;}
	.st7{display:inline;fill-rule:evenodd;clip-rule:evenodd;fill:#F7F7F7;}
	.st8{fill:#2E3192;}
	.st9{fill:#FFFFFF;}
	.st10{font-family:'DBFongNamX-Bold';}
	.st11{font-size:35px;}
	.st12{letter-spacing:0.78;}
	.st13{fill:#CCE7D3;}
	.st14{fill:#4D5DAA;}
	.st15{font-family:'PalatinoLinotype-Bold';}
	.st16{font-size:16.9843px;}
	.st17{fill:#E52A3A;}
	.st18{fill:#009540;}
</style>
<g class="st0">
	<path class="st1" d="M475.93,22.15c0-0.7,0-1.22,0-1.92c-15.2,0-31.45,0.17-46.82-0.7c-0.35,0.52-0.52,1.05-0.7,1.75
		c-15.37-0.35-30.75-0.7-46.12-1.05c0-0.7,0-1.57,0-2.27c-0.87,0-0.87,0-1.4,2.27c-1.4,0.17-2.79,0.35-4.19,0.52
		c-0.35-1.75-0.7-3.49-1.05-5.07c3.32-6.46,1.05-15.37,2.97-22.71c-0.52,0-1.05,0-1.4,0c-0.35-0.52-0.35-1.22-0.52-1.75
		c0.7-0.52,1.57-1.05,2.62-1.57c-1.05-0.17-1.92-0.17-2.62-0.35c0.35-28.65,0.7-57.13,1.05-85.78c-0.35-2.27-0.7-4.54-1.05-6.81
		c0-0.35,0-0.35,0-0.52c0.87,0.35,0.87,0.35,2.79,5.59c0,0.7,0,1.22,0,1.92c0.7,0.17,1.4,0.35,2.1,0.7c0.17,2.97,0.52,5.76,0.7,8.73
		c0.87,0.18,1.92,0.18,2.79,0.52c1.05,2.45,2.27,4.89,3.32,7.51c0,2.27,0,2.27-1.4,5.07c1.05,0,1.92,0,2.79,0c0,3.67,0,7.51,0,11.35
		c0.52,0.18,1.05,0.35,1.57,0.7c0,0.52,0,1.22,0,1.75c0.7-0.18,1.4-0.35,2.27-0.52c0,0.52,0,1.22,0,1.75
		c3.67,0.17,7.51,0.35,11.18,0.52c0.35-0.52,0.7-1.05,1.05-1.4c2.45,0,5.07,0,7.51,0c0.52,0.87,0.87,1.75,1.4,2.79
		c0.18-0.7,0.35-1.22,0.52-1.92c1.57,0,3.14-0.18,4.89-0.18c0.17-1.92,0.35-3.67,0.7-5.42c0.87,0,1.92,0,2.8,0c0-0.52,0-1.05,0-1.4
		c3.49,0.35,6.81,0.87,10.31,1.4c0.35,0.52,0.7,0.87,0.87,1.4c-0.87,0.17-1.75,0.35-2.62,0.52c0,0.52,0,1.22,0,1.92
		c0.87,0,1.75,0,2.62,0c0,0.87,0,1.75,0,2.62c0.7,0,1.22,0,1.92,0c0,1.57,0,3.14,0,4.89c1.22-0.35,2.62-0.7,3.84-1.05
		c0,0.87,0.17,1.75,0.17,2.62c0.52,0,1.05,0.17,1.75,0.17c2.1,1.75,2.62,2.1,3.14,4.72c0.7,0.17,1.22,0.17,1.92,0.17
		c3.32,4.72,9.43,9.26,11.36,13.98c0.35,0,0.87,0,1.4,0c0,0.52,0,1.22,0,1.92c7.86,3.32,9.96,0.7,12.75-5.59
		c3.14-0.52,4.19-1.57,6.99-1.92c-2.45,5.94-5.07,11.88-7.51,17.82c-0.7,0-1.22,0-1.92,0c0,2.62-0.87,6.46-2.79,8.04
		c0.52,0.35,1.05,0.7,1.57,1.05c-1.05,5.07-2.1,5.94-2.45,9.78c0.52,0,1.22,0,1.75,0c0,0.52,0,1.22,0,1.92c-0.52,0-1.22,0-1.75,0
		c0.35,5.59,1.4,6.46,1.75,9.26c1.57,0.35,3.15,0.7,4.72,0.87c1.75,6.64,9.08,5.42,15.02,6.29c0.35,0.35,0.7,0.87,1.05,1.22
		c-0.18,1.22-0.35,2.27-0.52,3.32C484.66,21.8,480.29,21.97,475.93,22.15z"/>
	<path class="st1" d="M489.03,21.62c0.18-1.05,0.35-2.1,0.52-3.32c0.87,0,1.92,0,2.79,0c0-0.52,0-1.05,0-1.75c1.22,0,2.45,0,3.67,0
		c-0.35-3.84-0.35-3.84-2.27-6.64c-0.87,0-1.92,0-2.8,0c0-0.52,0-0.87,0-1.4c-0.52,0-0.87,0-1.4,0c0.17-1.57,0.17-3.14,0.52-4.72
		c0.18-0.17,0.52-0.17,0.87-0.35c0.18,0.87,0.35,1.75,0.7,2.79c2.62-1.05,2.97-6.81,2.62-9.43c1.05-2.79,2.97-5.76,6.11-6.11
		c0.87,0.17,1.57,0.35,2.45,0.7c6.47-4.02,8.38-5.59,15.72-7.69c-0.35-0.87-0.52-1.57-0.7-2.27c2.97-0.87,6.11-1.75,9.08-2.45
		c0-1.05,0-1.05-1.92-1.05c0-0.87,0-1.92,0-2.8c3.14-1.75,4.19-3.14,6.11-6.11c0.87,0,1.57,0,2.45,0c1.4-2.97,5.07-6.64,8.38-6.99
		c0.35-3.32,5.07-8.74,6.64-11.36c1.75-0.35,3.67-0.7,5.59-0.87c0.52-10.31,0.52-10.31,1.92-15.2c0.88,0,1.92,0,2.8,0
		c0-0.35,0-0.87,0-1.22c0.88,0,1.92,0,2.8,0c0-2.27,0.87-2.62,2.8-3.32c0.53-1.22,0.87-2.62,1.57-3.84c0.35,0,0.88,0,1.4,0
		c1.05-2.45,2.09-5.07,3.14-7.51c0.87,0,1.92,0,2.8,0c0.18-1.22,0.35-2.62,0.52-3.84c0.53-0.35,1.22-0.52,1.92-0.87
		c0.35-3.15,0.53-4.19-0.87-6.99c1.05-8.73-1.75-19.04,4.19-25.85c0.7,0,1.57,0,2.27,0c0.7-1.92,1.22-3.84,1.92-5.76
		c0.7-0.17,1.57-0.53,2.27-0.7c-0.17-2.1-0.35-4.19-0.35-6.29c0-0.18,0-0.35,0-0.52c1.05-0.7,1.05-0.7,1.92-2.79
		c0.88,0.35,1.75,0.7,2.8,0.87c0,2.8,0,5.76,0,8.56c-0.53,0.17-0.87,0.35-1.22,0.7c-0.7,8.03-2.27,17.82,1.22,25.68
		c-4.37,11.18-1.75,29.17-1.92,41.23c-0.7,0-1.22,0-1.92,0c0.53,1.57,0.53,1.57,1.57,1.92c0,23.93,0,47.69-0.18,71.63
		c-1.22,2.1-1.22,2.1-3.15,3.14c-14.5,0.18-28.82,0.35-43.32,0.52c0,0.52,0,0.87,0,1.4c-0.87-0.17-1.57-0.35-2.44-0.52
		c-8.21-0.35-16.42-0.7-24.63-1.22c0,0.7,0.18,1.57,0.18,2.27c-2.45-2.62-7.34-1.57-10.83-1.75c-0.35,0.7-0.52,1.4-0.7,2.1
		C498.11,21.62,493.57,21.62,489.03,21.62z"/>
	<path class="st2" d="M502.66,21.62c0.17-0.7,0.35-1.4,0.7-2.1c3.5,0.18,8.39-0.87,10.83,1.75c0-0.7-0.18-1.57-0.18-2.27
		c8.21,0.52,16.42,0.87,24.63,1.22c-0.18,0.52-0.35,1.05-0.53,1.57C526.24,21.62,514.36,21.62,502.66,21.62z"/>
	<path class="st2" d="M541.09,20.75c0-0.52,0-0.87,0-1.4c14.5-0.18,28.83-0.35,43.32-0.52c1.92-1.05,1.92-1.05,3.15-3.14
		c0.18-23.93,0.18-47.69,0.18-71.63c-1.05-0.35-1.05-0.35-1.57-1.92c0.7,0,1.22,0,1.92,0c0.17-12.05-2.45-30.05,1.92-41.23
		c0.18,0,0.18,0.17,0.35,0.35c-0.18,39.13-0.53,78.44-0.88,117.57C586.33,25.29,548.6,20.93,541.09,20.75z"/>
	<path class="st3" d="M489.55,18.3c-0.35-0.35-0.7-0.87-1.05-1.22c4.37-1.75,5.42-3.14,2.45-7.16c0.87,0,1.92,0,2.8,0
		c1.92,2.79,1.92,2.79,2.27,6.64c-1.22,0-2.45,0-3.67,0c0,0.7,0,1.22,0,1.75C491.48,18.3,490.43,18.3,489.55,18.3z"/>
	<path class="st2" d="M375.65,15.68c0-4.89-1.57-19.22,1.57-22.71c0.35,0,0.87,0,1.4,0C376.7,0.31,378.97,9.22,375.65,15.68z"/>
	<path class="st3" d="M468.76,0.66c0.18,0,0.35,0.17,0.52,0.35c0.87,4.37,2.45,5.59,4.19,9.78c-1.57-0.17-3.14-0.52-4.72-0.87
		c-0.35-2.79-1.4-3.67-1.75-9.26C467.54,0.66,468.24,0.66,468.76,0.66z"/>
	<path class="st3" d="M490.08,3.8c-0.35-0.52-0.7-1.22-0.87-1.75c0.7-1.75,1.4-3.32,2.27-4.72c0.87-0.35,1.75-0.35,2.79-0.52
		c0.35,2.62,0,8.39-2.62,9.43c-0.35-1.05-0.52-1.92-0.7-2.79C490.6,3.63,490.25,3.63,490.08,3.8z"/>
	<path class="st3" d="M469.29,1.01c-0.18-0.18-0.35-0.35-0.52-0.35c0-0.7,0-1.4,0-1.92c-0.52,0-1.22,0-1.75,0
		c0.35-3.84,1.4-4.72,2.45-9.78c-0.52-0.35-1.05-0.7-1.57-1.05c1.92-1.57,2.79-5.42,2.79-8.04c0.7,0,1.22,0,1.92,0
		C469.99-4.93,470.16-1.26,469.29,1.01z"/>
</g>
<rect id="Blue_background" x="0" y="0" class="st8" width="600" height="600"/>
<rect id="Thai_name_background" x="0" y="600" class="st8" width="600" height="55"/>
<text transform="matrix(1.287 0 0 1.1 18.3719 636.9027)"><tspan x="0" y="0" class="st9 st10 st11 st12">สมาคมศัลยแพทย์ตกแต่งเสริมสวยแห่งประเทศไท</tspan><tspan x="427.86" y="0" class="st9 st10 st11">ย</tspan></text>
<rect id="Eng_name_background" x="0" y="655" class="st13" width="600" height="55"/>
<text transform="matrix(1 0 0 1.25 21.8836 688.5446)" class="st14 st15 st16">THE SOCIETY OF AESTHETIC PLASTIC SURGEONS OF THAILAND</text>
<path id="Main_part_1_" class="st9" d="M600,600H0L300,0L600,600L600,600z M300,600 M150,299.91 M450,299.91"/>
<g id="Head_1_">
	<polygon class="st17" points="193.68,285.31 211.11,285.31 211.11,274.27 390.06,274.27 390.06,282.99 406.32,282.99 
		406.32,581.62 193.68,581.62 	"/>
	<g>
		<path class="st9" d="M308.06,578.16c0.1-2.99-4.15-10.94-0.18-13.76c14.1-10,69.2-45.91,68.43-63.73c0.39,0-6.97-8.52-7.36-16.27
			c-0.52-10.44-4.26-28.66-39.12-37.96c-24.4-10.85-17.82,14.72-13.94,17.82c3.87,3.1,14.72,15.49-7.36,42.99
			s-23.63,44.71-23.63,51.29c0,6.58,6.55,15.94,11.5,18.16C299.77,578.21,308.06,578.16,308.06,578.16z"/>
		<path class="st9" d="M286.64,448.86c0,0-5.81-4.94-2.32-9.59c2.61-3.49,6.68,2.03,6.68,2.03s19.17-0.87,18.88,7.84
			C309.59,457.87,294.19,456.13,286.64,448.86z"/>
		<path class="st9" d="M405.16,388.44c-15.11-33.7-46.77-13.07-63.04-6.97c-20.63,10.46-29.34,24.98-41.25,35.73
			s-7.55,2.61-7.55,2.61c3.49-0.58,21.5-23.53,21.5-23.53s0.29-10.17,10.75-20.34c17.43,1.45,12.49-5.81,12.49-5.81
			s6.97,4.07,18.88,0.97c17.62-7.36,31.37-4.26,31.37-4.26s13.36,11.81,14.33,4.84c0.97-46.29-26.73-60.62-35.64-60.62
			c-8.91,0-25.56,9.88-26.73,14.72c-1.16,4.84-11.62,20.34-17.04,26.92c-5.42,6.59-10.46,15.11-11.43,26.92
			c-0.97,11.81-14.91,29.63-21.5,36.99c-6.59,7.36-6.78,3.68-6.78,3.68c3.29-0.58,18.4-23.24,18.4-23.24s-0.58-10.85,2.52-13.75
			c3.1-2.9,3.29-8.33,1.55-10.84c-1.74-2.52-10.07-3.87-9.88,3.49c0.19,7.36-6.59,24.02-9.88,29.63s-6.78,5.42-4.84,1.94
			c2.9-2.52,11.43-21.89,5.62-35.44c-2.64-6.15-4.29-11.42-5.05-18.21c-0.89-8.04,4.39-11.83,8.25-18.1
			c2.36-3.83,7.54-10.72,6.48-15.6c-1.16-25.95,9.88-15.69,13.36-27.5c2.26-7.66-11.39-7.69-15.47-7.83
			c-8.24-0.29-17.57-0.27-24.23,5.41c-1.65,1.41-4.94,5.52-9.01,7.26c-9.1-6.78-23.14,4.65-30.5,9.88
			c-14.33,11.23-3.49,32.34-1.74,35.44c1.22,2.16,22.08,23.63,27.89,33.31c5.81,9.68,9.3,32.34,5.23,37.14
			c-4.07,2.76-7.26,5.81-7.99,11.18c-0.73,5.37,9.01,22.8,10.75,27.6c1.74,4.79,3.63,12.35-2.18,1.16
			c-22.28-42.89-39.8-64.78-46.77-61.01c-6.1,1.45-8.13,9.01-6.1,15.98c2.03,6.97,0.87,18.01,0.87,18.01
			c-2.9,1.74-14.23,10.17-13.94,18.01c0.29,7.84,7.84,9.3,6.1,16.27c-5.23,4.65-1.45,11.62-1.45,11.62s7.84,3.78,6.1,10.17
			c-3.78,23.24,13.94,19.75,13.94,19.75s3.2-0.29,15.4-6.39c12.2-6.1,14.82-0.58,14.82-0.58s19.75,22.37,24.69,31.08
			c2.32,7.84,6.39,10.75,13.36,5.52c1.45-6.68,13.65-23.82,23.53-37.18c9.88-13.36-4.65-11.33-4.65-11.33s-6.68,6.97-18.88-1.74
			c-14.82-11.62-7.55-44.74-7.55-44.74s9.01,1.16,13.36-0.29c4.81-1.6-6.97-9.01-6.97-9.01c6.39,3.49,14.23-2.9,14.23-2.9
			l23.24-15.98c0,0,3.78-4.94,6.68-4.07c2.03,4.65,10.17,4.07,10.17,4.07s2.9-3.78,9.88,3.78c26.44-1.45,42.7,20.92,42.7,20.92
			s2.61,8.13,5.81,3.2C407.19,429.11,405.16,388.44,405.16,388.44z M269.21,415.17c0,0,6.39-15.4,1.74-28.47
			c-4.65-13.07-15.98-22.66-12.49-34.86c-0.87-11.04-2.32-26.44-2.32-26.44s0.29-8.13,3.2,2.32c2.9,10.46,6.39,11.62,6.39,11.62
			l-2.61,7.55C263.11,346.9,291.87,377.98,269.21,415.17z"/>
		<path class="st9" d="M296.51,359.97c0,0,3.2-35.15,1.74-42.7c-1.45-7.55,2.61-14.82,7.84-16.56c5.52-8.42,10.17-23.53,46.48-3.2
			c0,0,18.59,8.42,0.87,13.94c-15.11,8.71-24.98,29.34-24.98,29.34s-4.65,4.07-12.49,1.45c1.16,13.07-11.91,20.92-11.91,20.92
			S297.39,367.23,296.51,359.97z"/>
		<path class="st9" d="M220.4,376.53c0,0-22.37-0.58-22.37-22.08s14.82-29.92,19.17-29.92c4.36,0,13.94,20.63,12.78,39.51
			c-1.16,6.68,18.3,13.65,18.3,13.65s4.36-0.87,4.94,2.91c0.58,3.78-5.81,2.61-5.81,2.61s-4.94,9.3-13.94-1.45
			C225.92,379.14,220.4,376.53,220.4,376.53z"/>
		<path class="st9" d="M249.45,399.48c0,0,0-4.07-4.65-6.97c-4.65-2.91,3.49-10.75,8.72-5.52c5.23,5.23,5.5,19.81-0.29,20.34
			C250.03,407.61,249.45,399.48,249.45,399.48z"/>
		<path class="st9" d="M306.97,433.18c-4.07-9.01,10.17-11.62,10.17-11.62s14.53-12.78,23.82-4.07c9.88,0,16.85-3.49,16.85-3.49
			s44.45,3.49,41.25,46.48c-4.36,28.76-19.75,35.73-20.63,35.73c-0.87,0-8.13-6.97-7.84-19.17c0.29-12.2-18.3-27.6-23.82-28.47
			c-5.52-0.87-7.26-15.11-17.14-11.91c-3.2-10.46-8.71-10.17-13.36-3.78C311.62,439.28,306.97,433.18,306.97,433.18z"/>
	</g>
</g>
<g id="Torch_1_">
	<polygon class="st18" points="211.06,242.7 211.06,239.53 243.71,239.53 246.23,242.7 	"/>
	<polygon class="st18" points="211.06,251.64 211.06,248.47 252.19,248.47 254.7,251.64 	"/>
	<polygon class="st18" points="211.06,261.51 211.06,257.35 260.91,257.35 264.44,261.51 	"/>
	<polygon class="st18" points="390.05,242.7 390.05,239.53 360.85,239.53 358.61,242.7 	"/>
	<polygon class="st18" points="390.05,251.64 390.05,248.47 353.27,248.47 351.03,251.64 	"/>
	<polygon class="st18" points="390.05,261.51 390.05,257.35 345.53,257.35 342.32,261.51 	"/>
	<path class="st18" d="M211.06,274.14v-5.48h60.92c0,0,2.13,2.82,5.11,5.54"/>
	<path class="st17" d="M283.64,271.26c0,0-55.09-57.39-58.84-83.93c-3.75-26.53,7.79-30.28,21.92-29.71
		c14.13,0.58,21.63,2.31,25.09,0c3.46-2.31,4.9-5.19,7.79-3.46s-8.08,10.09-8.08,10.09s-1.15,5.48-14.13,7.21
		c-15,4.04-26.53,24.23-19.04,35.19c7.5,10.96,33.74,49.9,46.44,62.01C284.79,268.66,286.81,272.41,283.64,271.26z"/>
	<path class="st17" d="M321.85,271.25c0,0,0.19-2.11,3.65-4.42c3.46-2.31,37.25-49.99,39.18-74.41c-2.69-14.61-15-16.34-15-16.34
		s-12.4,0.29-14.13-6.06c-4.9-0.58-12.69-6.92-11.54-10.38c1.83-1.63,2.94,0.64,5.77,2.88c2.79,2.21,11.63,0.48,13.36-1.83
		c1.73-2.31,9.04-1.54,12.69,1.73c3.65,3.27,17.94,1.12,19.42,16.73c2.27,23.87-29.57,72.49-51.29,91.52v3.92"/>
	<path class="st17" d="M284.12,133.33c0,0,0.09-5.93,5.58-5.87c7.79,0.1,6.73,15.67,9.61,15.67c2.88,0,5.42-4.17,2.88-8.08
		c-1.97-3.03-1.35-1.88,2.11-1.88c3.46,0,3.27-1.44,6.92,0.34c1.51,0.73,2.23,2.16,3.12,3.55c0.67,1.05,0.83,5.14,2.16,5.05
		c2.4-0.17,2.56-2.71,3.06-3.89c0.55-1.3,0.85-2.8,1.17-4.17c0.62-2.63,0.82-5.87,0.1-8.51c-0.21-0.77-0.68-1.93-1.54-2.22
		c-3.46-1.15-9.71-6.69-12.88-14.52c-0.77-6.54-4.23-5.09-4.23-5.09c-0.96,6.35,3.41,8.54,1.54,13.84
		c-1.49,4.23-9.04,3.08-9.42,0.39c-2.5-8.65-3.65,0-3.65,0c-15.77,6.54-11.92,24.23-11.92,24.23S280.75,146.88,284.12,133.33z"/>
	<polygon class="st18" points="390.05,268.43 390.05,274.2 331.66,274.2 336.99,268.43 	"/>
	<path class="st18" d="M308.54,155.65c0.19-3.6,2.69-7.02,2.69-7.02h7.69v-2.16h-32.69v2.16c7.31,0,9.61,4.5,9.61,4.5l2.09,33.75
		h-3.34v3.24h3.54l5.21,84.15h1.73l2.31-84.78c0,0,5.96-4.32,5.96-13.86c0-9.54-6.35-12.6-6.35-12.6v-6.3L308.54,155.65z"/>
</g>
</svg>
