<?xml version="1.0" encoding="utf-8"?>
<!-- Generator: Adobe Illustrator 25.4.1, SVG Export Plug-In . SVG Version: 6.00 Build 0)  -->
<svg version="1.1" xmlns="http://www.w3.org/2000/svg" xmlns:xlink="http://www.w3.org/1999/xlink" x="0px" y="0px"
	 viewBox="0 0 392.24 388.52" style="enable-background:new 0 0 392.24 388.52;" xml:space="preserve">
<style type="text/css">
	.st0{fill:#213A8F;}
	.st1{fill:#FFFFFF;}
	.st2{fill:#009640;}
	.st3{fill:#E30613;}
</style>
<g id="Layer_1">
	<path class="st0" d="M348.98,194.5c0,86.3-69.29,156.25-154.76,156.25c-85.46,0-154.74-69.95-154.74-156.25
		c0-86.29,69.28-156.25,154.74-156.25C279.69,38.25,348.98,108.2,348.98,194.5z"/>
	<g>
		<g>
			<path class="st1" d="M263.32,73.29c-5.99-2.41-12.41-4.17-19.18-5.21h-22.83c0,0-0.03-0.1-0.08-0.27h-6.62
				c0.12,0.77,0.2,1.55,0.2,2.35c0,1.07-0.11,2.12-0.33,3.13H263.32z"/>
			<path class="st1" d="M214,65.31h6.29c-0.66-1.51-1.68-3.47-3.15-5.48h-6.4C212.19,61.4,213.31,63.25,214,65.31z"/>
			<path class="st1" d="M268.91,75.79h-55.19c-0.84,2.1-2.12,3.96-3.74,5.48h68.29C275.32,79.24,272.19,77.41,268.91,75.79z"/>
			<path class="st1" d="M199.64,203.85c-0.69,0-1.25-0.56-1.25-1.25c0-0.69,0.56-1.25,1.25-1.25h144.24c0.3-2.86-2.58-4.6-2.58-4.6
				s-0.36-0.33-0.99-0.9H199.64c-0.69,0-1.25-0.56-1.25-1.25s0.56-1.25,1.25-1.25h137.94c-1.67-1.53-3.8-3.48-6.15-5.67H199.64
				c-0.69,0-1.25-0.56-1.25-1.25c0-0.69,0.56-1.25,1.25-1.25h129.1c-1.84-1.72-3.75-3.52-5.65-5.33H199.64
				c-0.69,0-1.25-0.56-1.25-1.25s0.56-1.25,1.25-1.25h120.84c-1.97-1.9-3.88-3.77-5.6-5.5H199.64c-0.69,0-1.25-0.56-1.25-1.25
				s0.56-1.25,1.25-1.25h112.79c-2.37-2.47-4.14-4.48-4.89-5.67h-107.9c-0.69,0-1.25-0.56-1.25-1.25c0-0.69,0.56-1.25,1.25-1.25
				h107.44c-0.13-1.3-0.41-2.86-0.4-5.5H199.64c-0.69,0-1.25-0.56-1.25-1.25c0-0.69,0.56-1.25,1.25-1.25h107.13
				c0.1-1.53,0.28-3.34,0.6-5.5H199.64c-0.69,0-1.25-0.56-1.25-1.25c0-0.69,0.56-1.25,1.25-1.25h108.12
				c0.12-0.67,0.24-1.37,0.38-2.1c0.04-1.14,0.05-2.27,0.05-3.4H199.64c-0.69,0-1.25-0.56-1.25-1.25c0-0.69,0.56-1.25,1.25-1.25
				h108.49c-0.06-1.86-0.17-3.7-0.35-5.5H199.64c-0.69,0-1.25-0.56-1.25-1.25c0-0.69,0.56-1.25,1.25-1.25h107.84
				c-0.25-1.88-0.57-3.71-0.96-5.52H199.64c-0.69,0-1.25-0.56-1.25-1.25c0-0.69,0.56-1.25,1.25-1.25h106.32
				c-0.46-1.87-1-3.69-1.61-5.48H199.64c-0.69,0-1.25-0.56-1.25-1.25s0.56-1.25,1.25-1.25h103.81c-0.71-1.87-1.5-3.7-2.36-5.48
				H199.64c-0.69,0-1.25-0.56-1.25-1.25s0.56-1.25,1.25-1.25h100.18c-1.01-1.89-2.11-3.71-3.28-5.48h-96.9
				c-0.69,0-1.25-0.56-1.25-1.25c0-0.69,0.56-1.25,1.25-1.25h95.16c-1.4-1.91-2.91-3.73-4.5-5.48h-90.65
				c-0.69,0-1.25-0.56-1.25-1.25s0.56-1.25,1.25-1.25h88.26c-1.96-1.94-4.02-3.77-6.21-5.48h-75.27c-2.06,1.04-4.39,1.65-6.85,1.65
				c-8.41,0-15.25-6.84-15.25-15.25c0-8.41,6.84-15.25,15.25-15.25c3.02,0,5.83,0.89,8.21,2.42h7.28
				c-3.52-3.69-8.81-6.92-16.57-6.92c0,0-14-1-22,16.33c-27-1.33-51.67,6.33-65,17.33s-28.33,27-25.67,62.67
				c3.83,15-1.33,17.33-1.33,17.33l-30.83,29.67c0,0-9.79,5.75,0.17,11.5l11,9.17c0,0,4.67,4.17-0.17,7.17
				c-5.83,4.83-0.33,7.33-0.33,7.33s2.67,1.46-0.67,6c-3.32,4.49,4.95,9.3,5,9.33c2.68,1.55,2.64,5.49,1.57,7.85
				c-1.32,2.92-3.47,5.51-2.99,8.91c0.7,5,5.2,8.22,9.88,8.87c1.12,0.16,2.41,0.37,3.55,0.21c0,0,48.67-7.17,51.67,59.67
				c0,0,17.67,13.33,66,14.17c15.4-0.16,27.33-1.64,36.45-3.56h-35.12c-0.69,0-1.25-0.56-1.25-1.25s0.56-1.25,1.25-1.25h44.86
				c6.43-1.99,10.64-4.05,13.11-5.5h-57.97c-0.69,0-1.25-0.56-1.25-1.25s0.56-1.25,1.25-1.25h60.84c0.02-0.92,0.08-2.92,0.34-5.67
				h-61.18c-0.69,0-1.25-0.56-1.25-1.25s0.56-1.25,1.25-1.25h61.44c0.2-1.72,0.48-3.63,0.84-5.67h-62.28
				c-0.69,0-1.25-0.56-1.25-1.25s0.56-1.25,1.25-1.25h62.77c0.37-1.77,0.8-3.61,1.32-5.5h-64.08c-0.69,0-1.25-0.56-1.25-1.25
				c0-0.69,0.56-1.25,1.25-1.25h64.81c0.59-1.93,1.28-3.88,2.06-5.83h-66.87c-0.69,0-1.25-0.56-1.25-1.25
				c0-0.69,0.56-1.25,1.25-1.25h67.94c0.81-1.8,1.72-3.59,2.73-5.33h-70.67c-0.69,0-1.25-0.56-1.25-1.25s0.56-1.25,1.25-1.25h72.22
				c1.18-1.8,2.49-3.53,3.93-5.17h-76.15c-0.69,0-1.25-0.56-1.25-1.25s0.56-1.25,1.25-1.25h78.55c2.31-2.22,4.93-4.2,7.89-5.83
				h-86.44c-0.69,0-1.25-0.56-1.25-1.25s0.56-1.25,1.25-1.25h92.01c5.44-1.93,11.82-2.84,19.32-2.27c6.12-0.22,9.73-1.63,11.77-3.56
				h-123.1c-0.69,0-1.25-0.56-1.25-1.25s0.56-1.25,1.25-1.25h124.85c0.72-1.77,0.68-3.71,0.3-5.5H199.64
				c-0.69,0-1.25-0.56-1.25-1.25s0.56-1.25,1.25-1.25h124.4c-0.84-2.2-1.9-3.77-1.9-3.77s-0.24-0.54-0.37-1.39H199.64
				c-0.69,0-1.25-0.56-1.25-1.25c0-0.69,0.56-1.25,1.25-1.25h122.16c0.32-1.72,1.35-3.74,3.99-5.5H199.64
				c-0.69,0-1.25-0.56-1.25-1.25s0.56-1.25,1.25-1.25h129.71c1.06-1.83,0.38-4.11-0.36-5.67H199.64c-0.69,0-1.25-0.56-1.25-1.25
				c0-0.69,0.56-1.25,1.25-1.25H327.6c-0.23-0.8-0.12-2.18,2.21-3.77c0.58-0.58,0.91-1.16,1.06-1.73H199.64
				c-0.69,0-1.25-0.56-1.25-1.25c0-0.69,0.56-1.25,1.25-1.25h130.78c-1.15-2-3.78-3.44-3.78-3.44s-0.95-0.35-0.7-1.73h-126.3
				c-0.69,0-1.25-0.56-1.25-1.25s0.56-1.25,1.25-1.25h127.53c0.98-1.37,2.66-3.16,5.42-5.5H199.64c-0.69,0-1.25-0.56-1.25-1.25
				s0.56-1.25,1.25-1.25h136.06c1.73-1.34,3.74-2.8,6.11-4.44c0.42-0.42,0.76-0.83,1.05-1.23H199.64z"/>
		</g>
		<path class="st1" d="M199.64,75.79c-0.69,0-1.25-0.56-1.25-1.25s0.56-1.25,1.25-1.25h9.67c0.32-0.99,0.49-2.04,0.49-3.13
			c0-0.81-0.1-1.6-0.28-2.35h-9.88c-0.69,0-1.25-0.56-1.25-1.25s0.56-1.25,1.25-1.25h8.94c-1.73-3.21-5.13-5.4-9.02-5.4
			c-5.65,0-10.25,4.6-10.25,10.25c0,5.65,4.6,10.25,10.25,10.25c3.57,0,6.72-1.84,8.56-4.62H199.64z"/>
	</g>
	<path class="st2" d="M172.48,85.33c0,0,5.24-3.57,7.83-1.08c4.25,4.08-2.5,11.75-2.5,11.75l-17.92,20.75c0,0-5.75,8.17-6.42,21.83
		c0.25,11,2.33,20.08,11.92,34c12.33,17.74,16,31,14.42,40.33c-1.75,10.33-10.08,14.46-10.08,14.46l-20.12,14.19
		c0,0-10.38,5.12,0.88,8.35c12.5,4,26.6,16.67,25.94,22.33c0,0,1,5.44-11.69,8.5c-10.56,3.81-20.42,8.67-20.08,13.33
		c0.33,4.67,11.08,14.79,16.67,19.33c0,0,10.83,10,16,17.17c0,0-20.08-18.21-28-23.67c-7.46-4.79-10.83-12.29-8.83-16.33
		c8.06-11.58,28.83-13.17,29-19c-5.12-11.46-34.19-12.65-33.67-25.17c0-11,25.73-17.1,32.67-33.67c3.69-23.69-27.58-47-28.67-76.33
		C138.92,112.26,161.81,90.33,172.48,85.33z"/>
	<g>
		<path class="st2" d="M217.8,330.29c5.14-7.13,15.96-17.14,16.07-17.24c6.69-5.45,16.22-14.92,16.51-19
			c0.25-3.58-6.76-8.14-19.75-12.83c-12.26-2.96-12.11-8.22-12.02-8.98c-0.61-6.15,14.07-18.89,26.29-22.8
			c3.09-0.89,4.78-1.99,4.88-3.2c0.16-1.74-2.89-3.64-4.08-4.23l-20.19-14.23c-0.28-0.13-8.51-4.32-10.29-14.78
			c-1.79-10.58,3.09-24.28,14.5-40.7c9.57-13.89,11.58-22.89,11.83-33.73c-0.65-13.33-6.27-21.45-6.33-21.53l-17.89-20.71
			c-0.29-0.32-7.01-8.07-2.47-12.44c0.71-0.68,1.63-1.02,2.75-1.02c2.67,0,5.59,1.97,5.71,2.05c9.68,4.53,33.81,26.58,32.88,51.51
			c-0.54,14.5-8.27,27.35-15.75,39.78c-7.59,12.61-14.75,24.52-12.94,36.4c3.49,8.27,11.8,13.92,19.13,18.92
			c7.27,4.95,13.55,9.22,13.55,14.89c0.29,7.08-8.04,10.54-16.86,14.21c-7.11,2.96-14.46,6.01-16.8,11.05
			c0.2,2.28,4.54,4.05,9.56,6.1c6.62,2.71,14.86,6.08,19.34,12.52c2.07,4.16-1.07,11.96-8.97,17.04
			c-7.79,5.37-27.73,23.43-27.93,23.62l-3.52,3.19L217.8,330.29z"/>
		<path class="st1" d="M217.61,83.37c2.55,0,5.43,1.97,5.43,1.97c10.67,5,33.56,26.92,32.67,51.08
			c-1.08,29.33-32.35,52.65-28.67,76.33c6.94,16.56,32.67,22.67,32.67,33.67c0.52,12.52-28.54,13.71-33.67,25.17
			c0.17,5.83,20.94,7.42,29,19c2,4.04-1.38,11.54-8.83,16.33c-7.92,5.46-28,23.67-28,23.67c5.17-7.17,16-17.17,16-17.17
			c5.58-4.54,16.33-14.67,16.67-19.33c0.33-4.67-9.52-9.52-20.08-13.33c-12.69-3.06-11.69-8.5-11.69-8.5
			c-0.67-5.67,13.44-18.33,25.94-22.33c11.25-3.23,0.88-8.35,0.88-8.35l-20.12-14.19c0,0-8.33-4.12-10.08-14.46
			c-1.58-9.33,2.09-22.59,14.42-40.33c9.58-13.92,11.67-23,11.92-34c-0.67-13.67-6.42-21.83-6.42-21.83L217.71,96
			c0,0-6.75-7.67-2.5-11.75C215.88,83.61,216.72,83.37,217.61,83.37 M217.61,82.37c-1.25,0-2.3,0.39-3.1,1.16
			c-4.88,4.69,2.14,12.79,2.44,13.13l17.88,20.7c0.4,0.59,5.58,8.51,6.21,21.24c-0.25,10.73-2.25,19.64-11.74,33.42
			c-11.49,16.53-16.4,30.35-14.58,41.07c1.75,10.31,9.64,14.68,10.55,15.15l20.07,14.15l0.06,0.04l0.07,0.04
			c1.29,0.64,3.92,2.4,3.8,3.74c-0.04,0.45-0.56,1.62-4.51,2.76c-12.65,4.05-27.23,16.82-26.67,23.29
			c-0.09,1.07,0.11,6.48,12.41,9.46c5.98,2.16,19.71,7.64,19.37,12.3c-0.28,3.89-9.89,13.42-16.3,18.63l-0.02,0.02l-0.02,0.02
			c-0.45,0.41-10.97,10.15-16.13,17.32l-5.55,7.71l7.04-6.38c0.2-0.18,20.12-18.23,27.9-23.58c7.47-4.8,11.59-12.7,9.16-17.6
			l-0.03-0.07l-0.04-0.06c-4.56-6.56-12.88-9.96-19.56-12.69c-4.57-1.87-8.89-3.64-9.24-5.56c2.32-4.79,9.52-7.78,16.47-10.67
			c8.59-3.57,17.48-7.27,17.17-14.71c0-5.89-6.38-10.23-13.77-15.26c-7.26-4.94-15.48-10.54-18.93-18.64
			c-1.76-11.68,5.35-23.5,12.88-36c7.51-12.48,15.28-25.39,15.82-40.02c0.5-13.66-6.36-25.69-12.2-33.37
			c-7.16-9.4-15.67-16.12-20.97-18.62C223.05,84.14,220.23,82.37,217.61,82.37L217.61,82.37z"/>
	</g>
	<circle class="st2" cx="37.98" cy="101.5" r="8.75"/>
	<circle class="st2" cx="358.48" cy="106" r="8.75"/>
	<g>
		<path class="st3" d="M31.1,123.66l-4.41,11.14l-1.73-0.69l1.84-4.65l-11.87-4.7l0.76-1.92l11.87,4.7l1.81-4.57L31.1,123.66z"/>
		<path class="st3" d="M23.02,145.94l-0.63,1.95l-13.9-4.49l0.63-1.95l6.05,1.95l2.48-7.67l-6.05-1.95l0.63-1.95l13.9,4.49
			l-0.63,1.95l-6.01-1.94l-2.48,7.67L23.02,145.94z"/>
		<path class="st3" d="M21.65,150.66l-2.05,7.87l-1.8-0.47l1.53-5.88l-4.31-1.12l-1.48,5.68l-1.81-0.47l1.48-5.68l-4.39-1.14
			l-1.58,6.07l-1.8-0.47l2.1-8.06L21.65,150.66z"/>
		<path class="st3" d="M8.98,168.17l1.23-1.36c0.77-0.86,1.49-1.43,2.14-1.74c0.65-0.3,1.36-0.39,2.11-0.25
			c1.13,0.2,1.98,0.75,2.55,1.65c0.57,0.9,0.74,1.96,0.52,3.2c-0.21,1.18-0.74,2.2-1.6,3.06l-2.34-0.42
			c1.18-0.84,1.88-1.84,2.09-3.01c0.12-0.66,0.06-1.23-0.17-1.71c-0.23-0.48-0.59-0.76-1.08-0.85c-0.43-0.08-0.86,0.01-1.29,0.25
			c-0.43,0.24-0.92,0.68-1.46,1.29l-1.21,1.38c-1.36,1.53-2.85,2.15-4.47,1.86c-1.15-0.21-2.02-0.76-2.61-1.64
			c-0.58-0.89-0.77-1.94-0.55-3.15c0.25-1.39,0.92-2.58,2-3.57l2.61,0.47c-1.61,0.84-2.54,1.97-2.8,3.41
			c-0.11,0.63-0.03,1.19,0.25,1.68c0.28,0.49,0.69,0.78,1.23,0.87C7.03,169.74,7.97,169.27,8.98,168.17z"/>
		<path class="st3" d="M15.75,182.3c-0.23,2.2-1.13,3.96-2.7,5.28c-1.57,1.32-3.43,1.87-5.58,1.64c-2.14-0.22-3.84-1.15-5.09-2.77
			c-1.25-1.62-1.76-3.56-1.52-5.82c0.22-2.15,1.11-3.87,2.66-5.15c1.55-1.29,3.39-1.82,5.5-1.6c2.17,0.23,3.89,1.13,5.16,2.72
			C15.46,178.2,15.98,180.09,15.75,182.3z M13.77,182.17c0.17-1.63-0.21-3.03-1.14-4.19c-0.93-1.16-2.2-1.82-3.82-1.99
			c-1.57-0.16-2.93,0.23-4.08,1.17c-1.15,0.95-1.81,2.21-1.97,3.79c-0.16,1.59,0.23,2.97,1.18,4.15c0.95,1.17,2.22,1.84,3.8,2.01
			c1.54,0.16,2.89-0.24,4.05-1.19C12.94,184.97,13.6,183.72,13.77,182.17z"/>
		<path class="st3" d="M3.64,204.39l-2.3,0.04c-0.86-1.49-1.31-3.22-1.34-5.19c-0.03-1.6,0.28-2.96,0.92-4.09
			c0.64-1.13,1.53-2.02,2.66-2.69c1.14-0.67,2.38-1.01,3.72-1.04c2.13-0.04,3.93,0.68,5.4,2.14c1.47,1.46,2.23,3.29,2.27,5.47
			c0.02,1.51-0.35,3.19-1.12,5.04l-2.25,0.04c0.95-1.69,1.41-3.34,1.38-4.94c-0.03-1.64-0.58-3-1.65-4.06
			c-1.07-1.07-2.41-1.59-4-1.56c-1.6,0.03-2.91,0.58-3.93,1.67c-1.01,1.08-1.51,2.46-1.48,4.12C1.96,201.07,2.53,202.75,3.64,204.39
			z"/>
		<path class="st3" d="M15.03,206.56l0.13,2.05l-14.58,0.9l-0.13-2.05L15.03,206.56z"/>
		<path class="st3" d="M15.34,211.57l0.86,8.08l-1.85,0.2l-0.64-6.04l-4.43,0.47l0.62,5.84l-1.86,0.2l-0.62-5.84l-4.51,0.48
			l0.66,6.24l-1.85,0.2l-0.88-8.28L15.34,211.57z"/>
		<path class="st3" d="M16.28,220.45l2.03,11.8l-1.83,0.32l-0.85-4.93l-12.58,2.17l-0.35-2.03l12.58-2.17l-0.83-4.84L16.28,220.45z"
			/>
		<path class="st3" d="M20.73,242.16l0.6,2.42l-7.95-3.49l-7.5,1.85l-0.5-2.04l7.5-1.85l5.41-6.79l0.59,2.41l-3.97,4.93
			L20.73,242.16z"/>
		<path class="st3" d="M25.99,257.64c0.78,2.07,0.76,4.05-0.06,5.93c-0.82,1.88-2.24,3.2-4.25,3.96c-2.02,0.76-3.95,0.69-5.79-0.21
			c-1.85-0.9-3.17-2.4-3.96-4.52c-0.76-2.02-0.73-3.96,0.08-5.8c0.81-1.84,2.22-3.14,4.21-3.89c2.04-0.77,3.99-0.72,5.84,0.13
			C23.89,254.11,25.21,255.57,25.99,257.64z M24.16,258.42c-0.58-1.54-1.54-2.61-2.89-3.23c-1.35-0.62-2.79-0.65-4.31-0.07
			c-1.47,0.55-2.52,1.51-3.12,2.87c-0.61,1.36-0.63,2.79-0.07,4.28c0.56,1.5,1.53,2.56,2.91,3.18c1.38,0.63,2.81,0.66,4.29,0.1
			c1.45-0.54,2.48-1.5,3.09-2.88C24.67,261.29,24.7,259.88,24.16,258.42z"/>
		<path class="st3" d="M29.5,266.88l3.23,6.93l-1.69,0.79l-2.36-5.07l-3.7,1.72l2.36,5.07l-1.69,0.79l-2.36-5.07l-6.17,2.87
			l-0.87-1.86L29.5,266.88z"/>
		<path class="st3" d="M23.56,287.75l12.66-7.34l2.28,3.93c0.69,1.18,0.91,2.32,0.66,3.4c-0.24,1.08-0.91,1.94-2.01,2.58
			c-0.74,0.43-1.49,0.62-2.27,0.59c-0.78-0.03-1.48-0.29-2.09-0.77c-0.62-0.48-1.27-1.3-1.95-2.48l-0.76-1.31l-5.48,3.18
			L23.56,287.75z M36.7,284.97l-1.07-1.84l-3.95,2.29l1.13,1.94c0.42,0.72,0.91,1.18,1.49,1.37c0.57,0.19,1.18,0.1,1.83-0.28
			C37.42,287.71,37.62,286.55,36.7,284.97z"/>
		<path class="st3" d="M41.55,289.49l1.13,1.71l-10.61,7l3.56,5.39l-1.59,1.05l-4.69-7.1L41.55,289.49z"/>
		<path class="st3" d="M49.9,301.38l0.87,1.15l-7.81,14.01l-1.27-1.67l2.29-4.14l-3.7-4.87l-4.53,1.19l-1.28-1.68L49.9,301.38z
			 M44.96,308.93l2.81-5.04l-5.51,1.49L44.96,308.93z"/>
		<path class="st3" d="M51.39,316.83l-0.29-1.81c-0.18-1.14-0.18-2.06-0.01-2.76c0.17-0.7,0.55-1.3,1.13-1.8
			c0.87-0.75,1.83-1.07,2.89-0.95c1.06,0.12,1.99,0.66,2.81,1.6c0.78,0.9,1.24,1.96,1.38,3.16l-1.79,1.56
			c0.09-1.44-0.26-2.62-1.04-3.52c-0.44-0.51-0.92-0.82-1.44-0.94c-0.52-0.12-0.97-0.02-1.34,0.31c-0.33,0.29-0.54,0.67-0.62,1.17
			c-0.08,0.49-0.05,1.14,0.09,1.95l0.31,1.8c0.34,2.02-0.11,3.57-1.35,4.64c-0.89,0.77-1.86,1.1-2.91,1
			c-1.06-0.1-1.99-0.62-2.8-1.55c-0.93-1.07-1.44-2.33-1.53-3.79l2.01-1.74c-0.36,1.78-0.06,3.21,0.9,4.31
			c0.42,0.49,0.91,0.77,1.47,0.86c0.56,0.08,1.04-0.05,1.46-0.41C51.38,319.33,51.61,318.3,51.39,316.83z"/>
		<path class="st3" d="M60.77,314.71l8.38,8.56l-1.33,1.3l-3.5-3.57l-9.13,8.93l-1.44-1.47l9.13-8.93l-3.44-3.51L60.77,314.71z"/>
		<path class="st3" d="M70.45,324.41l1.5,1.4l-9.94,10.71l-1.5-1.4L70.45,324.41z"/>
		<path class="st3" d="M76.38,344.35l-1.47,1.77c-1.69-0.32-3.3-1.11-4.81-2.37c-1.23-1.02-2.07-2.14-2.5-3.36
			c-0.44-1.22-0.54-2.48-0.3-3.78c0.24-1.3,0.78-2.46,1.64-3.49c1.36-1.63,3.08-2.53,5.15-2.7c2.07-0.16,3.95,0.45,5.62,1.85
			c1.16,0.96,2.19,2.34,3.09,4.13l-1.44,1.73c-0.66-1.82-1.61-3.25-2.84-4.27c-1.26-1.05-2.65-1.52-4.16-1.4
			c-1.51,0.12-2.77,0.79-3.79,2.01c-1.03,1.23-1.46,2.59-1.3,4.06c0.16,1.48,0.88,2.75,2.16,3.81
			C72.76,343.46,74.41,344.13,76.38,344.35z"/>
		<path class="st3" d="M92.03,341.65l1.19,0.81l-2.94,15.77l-1.74-1.18l0.85-4.66l-5.06-3.44l-3.92,2.58l-1.75-1.19L92.03,341.65z
			 M89.75,350.38l1.06-5.68l-4.75,3.17L89.75,350.38z"/>
		<path class="st3" d="M109.39,352.35l1.7,0.96l-7.2,12.71l-1.54-0.87l-2.79-14.52l-5.55,9.79l-1.68-0.95l7.2-12.71l1.45,0.82
			l2.82,14.64L109.39,352.35z"/>
		<path class="st3" d="M107.38,367.77l6.08-13.26l4.4,2.01c1.77,0.81,3.05,1.73,3.84,2.74c0.78,1.01,1.24,2.19,1.37,3.52
			c0.13,1.33-0.09,2.62-0.66,3.86c-0.41,0.89-0.96,1.66-1.67,2.32c-0.71,0.66-1.51,1.15-2.42,1.48c-0.92,0.34-1.88,0.48-2.87,0.42
			c-0.58-0.03-1.09-0.1-1.53-0.22c-0.44-0.12-1.24-0.45-2.4-0.98L107.38,367.77z M116.88,358.12l-2.33-1.07l-4.53,9.88l2.39,1.09
			c0.93,0.43,1.69,0.69,2.26,0.8c0.58,0.11,1.08,0.14,1.52,0.1c0.44-0.04,0.86-0.14,1.28-0.3c1.36-0.53,2.37-1.52,3.03-2.97
			c0.65-1.43,0.71-2.81,0.18-4.14c-0.19-0.5-0.47-0.95-0.82-1.38c-0.35-0.42-0.71-0.76-1.09-1.02
			C118.41,358.87,117.78,358.53,116.88,358.12z"/>
		<path class="st3" d="M128.21,376.65l4.63-13.86l3.41,1.14c1.38,0.46,2.35,1.17,2.93,2.14c0.58,0.96,0.67,2.04,0.27,3.22
			c-0.27,0.81-0.7,1.44-1.29,1.89c-0.59,0.46-1.31,0.71-2.15,0.75c0.34,0.44,0.63,0.98,0.88,1.62c0.25,0.64,0.54,1.71,0.87,3.21
			c0.21,0.95,0.39,1.66,0.54,2.16l0.39,1.23l-2.32-0.77l-0.29-1.11c-0.01-0.04-0.03-0.11-0.06-0.21l-0.2-0.67l-0.26-1.21l-0.29-1.3
			c-0.21-0.7-0.43-1.28-0.65-1.73c-0.22-0.45-0.44-0.79-0.66-1.03c-0.22-0.24-0.65-0.46-1.28-0.68l-0.51-0.17l-2.02,6.03
			L128.21,376.65z M134.82,365.33l-0.58-0.2l-1.46,4.37l0.74,0.25c0.99,0.33,1.69,0.47,2.12,0.42c0.42-0.05,0.8-0.21,1.12-0.49
			c0.32-0.28,0.56-0.64,0.7-1.08c0.15-0.44,0.16-0.87,0.06-1.3c-0.11-0.43-0.35-0.79-0.71-1.07
			C136.43,365.95,135.77,365.65,134.82,365.33z"/>
		<path class="st3" d="M144.57,366.59l7.85,2.1l-0.48,1.8l-5.87-1.57l-1.15,4.3l5.67,1.52l-0.48,1.81l-5.67-1.52l-1.17,4.38
			l6.06,1.62l-0.48,1.8l-8.04-2.15L144.57,366.59z"/>
		<path class="st3" d="M164.35,382.58l-0.44,2.26c-1.64,0.53-3.42,0.61-5.36,0.23c-1.57-0.31-2.84-0.89-3.81-1.75
			c-0.97-0.86-1.66-1.91-2.08-3.17c-0.42-1.25-0.5-2.54-0.24-3.85c0.41-2.09,1.49-3.7,3.23-4.83c1.74-1.14,3.68-1.49,5.82-1.07
			c1.48,0.29,3.04,1.01,4.69,2.15l-0.43,2.21c-1.46-1.28-2.97-2.08-4.54-2.38c-1.61-0.32-3.05-0.06-4.32,0.77
			c-1.27,0.83-2.06,2.02-2.36,3.58c-0.31,1.57-0.04,2.97,0.81,4.19c0.85,1.22,2.09,1.99,3.72,2.31
			C160.74,383.54,162.51,383.33,164.35,382.58z"/>
		<path class="st3" d="M175.61,372.47c2.2,0.24,3.96,1.15,5.27,2.74c1.31,1.58,1.85,3.44,1.61,5.58c-0.24,2.14-1.17,3.83-2.8,5.07
			c-1.63,1.24-3.57,1.74-5.82,1.49c-2.15-0.24-3.86-1.13-5.14-2.69c-1.28-1.56-1.8-3.4-1.57-5.51c0.24-2.17,1.16-3.88,2.75-5.15
			S173.4,372.23,175.61,372.47z M175.47,374.46c-1.63-0.18-3.03,0.19-4.19,1.12c-1.16,0.92-1.84,2.19-2.01,3.81
			c-0.17,1.57,0.21,2.93,1.15,4.08c0.94,1.16,2.2,1.82,3.78,1.99c1.59,0.17,2.98-0.21,4.16-1.15c1.18-0.94,1.86-2.21,2.03-3.79
			c0.17-1.54-0.22-2.89-1.17-4.06C178.27,375.3,177.02,374.63,175.47,374.46z"/>
		<path class="st3" d="M196.73,373.87l1.95,0.04l-0.32,14.61l-1.77-0.04l-9.34-11.46L187,388.27l-1.93-0.04l0.32-14.61l1.66,0.04
			l9.42,11.56L196.73,373.87z"/>
		<path class="st3" d="M205.28,382.08l-1.6-0.9c-1-0.56-1.73-1.13-2.17-1.7c-0.44-0.57-0.68-1.24-0.71-2
			c-0.05-1.15,0.3-2.1,1.05-2.85c0.75-0.75,1.75-1.16,3-1.21c1.2-0.05,2.31,0.24,3.34,0.88l0.11,2.37c-1.08-0.97-2.21-1.42-3.4-1.37
			c-0.67,0.03-1.21,0.21-1.63,0.55c-0.42,0.33-0.61,0.75-0.59,1.24c0.02,0.44,0.2,0.84,0.53,1.21c0.33,0.37,0.86,0.75,1.58,1.13
			l1.61,0.88c1.79,0.99,2.73,2.3,2.8,3.94c0.05,1.17-0.29,2.14-1.03,2.9c-0.74,0.77-1.72,1.18-2.95,1.23
			c-1.41,0.06-2.72-0.32-3.92-1.16l-0.12-2.65c1.17,1.38,2.48,2.04,3.94,1.97c0.64-0.03,1.17-0.23,1.58-0.62
			c0.41-0.38,0.6-0.85,0.58-1.4C207.24,383.64,206.57,382.83,205.28,382.08z"/>
		<path class="st3" d="M209.46,373.41l11.91-1.23l0.19,1.85l-4.97,0.51l1.31,12.7l-2.05,0.21l-1.31-12.7l-4.89,0.5L209.46,373.41z"
			/>
		<path class="st3" d="M225.46,386.34l-2.46-14.4l3.54-0.61c1.43-0.24,2.63-0.08,3.59,0.5c0.96,0.58,1.55,1.48,1.76,2.71
			c0.14,0.84,0.06,1.6-0.25,2.28c-0.31,0.68-0.82,1.24-1.54,1.67c0.5,0.23,1.02,0.56,1.54,1.01c0.52,0.45,1.28,1.26,2.29,2.42
			c0.63,0.73,1.13,1.28,1.5,1.64l0.92,0.9l-2.41,0.41l-0.78-0.84c-0.03-0.03-0.08-0.08-0.15-0.15l-0.49-0.5l-0.81-0.95l-0.87-1.01
			c-0.52-0.52-0.98-0.93-1.39-1.22c-0.41-0.29-0.76-0.49-1.07-0.6c-0.31-0.11-0.79-0.1-1.45,0.01l-0.53,0.09l1.07,6.27
			L225.46,386.34z M225.93,373.25l-0.61,0.1l0.78,4.55l0.77-0.13c1.03-0.18,1.71-0.38,2.06-0.63c0.35-0.24,0.6-0.56,0.75-0.96
			c0.15-0.4,0.19-0.83,0.11-1.29c-0.08-0.45-0.27-0.84-0.56-1.17c-0.3-0.33-0.68-0.53-1.13-0.61
			C227.65,373.03,226.93,373.08,225.93,373.25z"/>
		<path class="st3" d="M244.17,367.59l2-0.49l1.96,8.06c0.27,1.09,0.39,1.93,0.37,2.53c-0.02,0.59-0.1,1.1-0.24,1.53
			c-0.14,0.43-0.34,0.82-0.6,1.2c-0.87,1.24-2.19,2.07-3.97,2.51c-1.82,0.44-3.39,0.32-4.72-0.38c-0.4-0.22-0.77-0.48-1.09-0.8
			c-0.32-0.31-0.62-0.72-0.9-1.22c-0.28-0.5-0.56-1.32-0.84-2.47l-1.96-8.04l2-0.49l1.96,8.06c0.33,1.33,0.7,2.23,1.13,2.67
			c0.43,0.45,0.98,0.76,1.67,0.92c0.69,0.17,1.45,0.15,2.28-0.05c1.18-0.29,2.07-0.84,2.66-1.65c0.31-0.43,0.5-0.9,0.56-1.41
			c0.06-0.5-0.04-1.31-0.32-2.43L244.17,367.59z"/>
		<path class="st3" d="M263.76,373.22l0.72,2.19c-1.17,1.27-2.69,2.21-4.56,2.82c-1.52,0.5-2.91,0.61-4.18,0.34
			c-1.26-0.27-2.38-0.86-3.36-1.75c-0.98-0.89-1.67-1.97-2.09-3.24c-0.66-2.02-0.52-3.95,0.44-5.79c0.96-1.84,2.48-3.1,4.55-3.79
			c1.43-0.47,3.14-0.61,5.14-0.43l0.7,2.14c-1.9-0.4-3.61-0.36-5.13,0.14c-1.56,0.51-2.69,1.44-3.39,2.78
			c-0.7,1.34-0.8,2.77-0.31,4.28c0.5,1.52,1.42,2.61,2.76,3.26c1.34,0.65,2.79,0.71,4.37,0.19
			C261.09,375.81,262.53,374.77,263.76,373.22z"/>
		<path class="st3" d="M261.12,362.2l11.07-4.57l0.71,1.72l-4.62,1.91l4.87,11.81l-1.91,0.79l-4.87-11.81l-4.54,1.87L261.12,362.2z"
			/>
		<path class="st3" d="M273.71,356.85l1.86-0.87l6.21,13.23l-1.86,0.87L273.71,356.85z"/>
		<path class="st3" d="M286.29,350.49l1.81-0.96l1.51,15.81l-0.41,0.22l-12.33-10.08l1.83-0.97l8.61,7.05L286.29,350.49z"/>
		<path class="st3" d="M289.13,348.85l6.94-4.24l0.97,1.59l-5.18,3.17l2.32,3.8l5.01-3.06l0.98,1.6l-5.01,3.06l2.37,3.87l5.35-3.27
			l0.97,1.59l-7.1,4.34L289.13,348.85z"/>
		<path class="st3" d="M310.4,344.96l-1.83,0.14c-1.15,0.09-2.06,0.02-2.75-0.21c-0.68-0.23-1.25-0.65-1.71-1.27
			c-0.68-0.93-0.92-1.91-0.71-2.96c0.21-1.04,0.81-1.93,1.82-2.68c0.96-0.71,2.05-1.08,3.26-1.12l1.41,1.91
			c-1.43-0.2-2.63,0.05-3.59,0.75c-0.54,0.4-0.89,0.85-1.05,1.36c-0.16,0.51-0.09,0.96,0.2,1.36c0.26,0.35,0.63,0.59,1.11,0.71
			c0.48,0.12,1.13,0.14,1.95,0.06l1.82-0.17c2.04-0.18,3.55,0.4,4.52,1.72c0.69,0.94,0.95,1.94,0.76,2.98
			c-0.19,1.05-0.78,1.93-1.77,2.66c-1.14,0.84-2.44,1.25-3.91,1.22l-1.57-2.14c1.74,0.5,3.2,0.31,4.37-0.55
			c0.52-0.38,0.84-0.84,0.97-1.39c0.13-0.55,0.03-1.04-0.29-1.48C312.89,345.17,311.89,344.86,310.4,344.96z"/>
		<path class="st3" d="M317.63,328.29l1.58-1.33l5.34,6.35c0.72,0.86,1.21,1.56,1.45,2.1c0.24,0.54,0.4,1.03,0.46,1.48
			c0.06,0.44,0.06,0.89-0.01,1.34c-0.23,1.49-1.04,2.83-2.45,4.01c-1.43,1.2-2.89,1.79-4.4,1.76c-0.46-0.01-0.9-0.09-1.33-0.23
			c-0.42-0.14-0.87-0.37-1.35-0.69c-0.47-0.32-1.09-0.93-1.85-1.84l-5.33-6.33l1.58-1.33l5.34,6.35c0.88,1.05,1.62,1.68,2.2,1.9
			c0.58,0.21,1.22,0.24,1.91,0.08c0.69-0.16,1.36-0.51,2.02-1.06c0.93-0.78,1.48-1.67,1.65-2.66c0.08-0.53,0.04-1.03-0.13-1.51
			c-0.17-0.48-0.62-1.16-1.36-2.04L317.63,328.29z"/>
		<path class="st3" d="M331.24,335.69l-10.21-10.46l2.57-2.51c1.04-1.01,2.12-1.56,3.24-1.63c1.12-0.07,2.12,0.34,2.99,1.23
			c0.59,0.61,0.96,1.28,1.09,2.02c0.13,0.74,0.03,1.49-0.31,2.25c0.54-0.1,1.16-0.11,1.84-0.04c0.68,0.07,1.77,0.3,3.26,0.69
			c0.94,0.25,1.66,0.41,2.17,0.5l1.27,0.22l-1.75,1.71l-1.12-0.25c-0.04-0.01-0.11-0.02-0.21-0.04l-0.69-0.13l-1.2-0.32l-1.29-0.34
			c-0.72-0.13-1.33-0.2-1.83-0.21c-0.5-0.01-0.91,0.03-1.22,0.12c-0.31,0.09-0.71,0.36-1.19,0.83l-0.38,0.37l4.44,4.55
			L331.24,335.69z M324.19,324.65l-0.44,0.43l3.22,3.3l0.56-0.54c0.75-0.73,1.19-1.29,1.34-1.69c0.15-0.4,0.17-0.81,0.07-1.22
			c-0.1-0.41-0.32-0.79-0.64-1.12c-0.32-0.33-0.7-0.54-1.13-0.64c-0.43-0.1-0.86-0.05-1.28,0.14
			C325.47,323.5,324.91,323.94,324.19,324.65z"/>
		<path class="st3" d="M340.45,315.72l3.18-3.62l4.65,4.09c-0.58,1.84-1.44,3.42-2.59,4.72c-1.57,1.78-3.35,2.74-5.35,2.88
			c-2,0.13-3.77-0.48-5.33-1.85c-1.64-1.44-2.52-3.19-2.64-5.25c-0.12-2.06,0.56-3.93,2.02-5.59c0.53-0.61,1.11-1.12,1.72-1.55
			c0.61-0.43,1.46-0.9,2.55-1.42l1.6,1.41c-1.89,0.62-3.39,1.56-4.5,2.82c-1.04,1.18-1.5,2.53-1.39,4.05
			c0.11,1.53,0.76,2.81,1.94,3.86c1.25,1.1,2.62,1.59,4.12,1.48c1.5-0.11,2.81-0.8,3.92-2.07c0.54-0.62,1.05-1.48,1.51-2.59
			l0.08-0.19l-2.29-2.01l-1.82,2.07L340.45,315.72z"/>
		<path class="st3" d="M339.65,305.12l4.92-6.47l1.48,1.13l-3.68,4.84l3.55,2.7l3.55-4.67l1.49,1.13l-3.55,4.67l3.61,2.75l3.8-4.99
			l1.48,1.13l-5.04,6.62L339.65,305.12z"/>
		<path class="st3" d="M349.44,291.06c1.2-1.86,2.81-3.02,4.81-3.48c2-0.46,3.91-0.11,5.71,1.06c1.81,1.17,2.9,2.76,3.28,4.78
			c0.38,2.02-0.05,3.97-1.28,5.87c-1.17,1.81-2.74,2.94-4.71,3.38c-1.97,0.44-3.84,0.08-5.63-1.07c-1.83-1.19-2.96-2.78-3.37-4.77
			C347.84,294.85,348.24,292.92,349.44,291.06z M351.15,292.07c-0.89,1.38-1.18,2.79-0.88,4.25c0.3,1.45,1.14,2.62,2.5,3.51
			c1.32,0.86,2.71,1.12,4.16,0.8c1.45-0.32,2.61-1.15,3.48-2.49c0.87-1.34,1.15-2.75,0.83-4.23c-0.31-1.48-1.14-2.65-2.47-3.51
			c-1.3-0.84-2.68-1.1-4.15-0.77C353.16,289.95,352,290.77,351.15,292.07z"/>
		<path class="st3" d="M360.08,272.78l0.9-1.73l12.95,6.76l-0.82,1.57l-14.41,3.29l9.98,5.21l-0.89,1.71l-12.95-6.76l0.77-1.47
			l14.53-3.32L360.08,272.78z"/>
		<path class="st3" d="M371.23,268.68l-1.51,1.05c-0.95,0.66-1.77,1.06-2.48,1.2c-0.71,0.15-1.41,0.07-2.11-0.24
			c-1.06-0.46-1.76-1.19-2.11-2.19c-0.35-1-0.27-2.08,0.22-3.23c0.48-1.1,1.23-1.97,2.25-2.62l2.18,0.94
			c-1.34,0.55-2.25,1.37-2.72,2.46c-0.27,0.62-0.34,1.18-0.22,1.71c0.12,0.52,0.4,0.88,0.86,1.08c0.4,0.17,0.84,0.19,1.32,0.05
			c0.48-0.14,1.05-0.45,1.71-0.93l1.49-1.06c1.67-1.18,3.26-1.45,4.77-0.79c1.08,0.46,1.8,1.2,2.16,2.19c0.37,1,0.3,2.06-0.18,3.19
			c-0.56,1.3-1.48,2.31-2.76,3.02l-2.44-1.06c1.75-0.45,2.92-1.34,3.5-2.68c0.26-0.59,0.3-1.15,0.14-1.69
			c-0.16-0.54-0.5-0.92-1-1.13C373.49,267.6,372.46,267.84,371.23,268.68z"/>
		<path class="st3" d="M369.61,247.99c0.65-2.12,1.88-3.67,3.68-4.65c1.8-0.99,3.73-1.16,5.79-0.52c2.06,0.64,3.54,1.88,4.45,3.71
			c0.91,1.84,1.03,3.84,0.36,6c-0.64,2.06-1.85,3.58-3.62,4.53c-1.77,0.96-3.68,1.12-5.71,0.49c-2.08-0.64-3.6-1.87-4.53-3.68
			C369.09,252.07,368.95,250.11,369.61,247.99z M371.53,248.5c-0.49,1.57-0.38,3.01,0.3,4.33c0.69,1.32,1.81,2.22,3.36,2.7
			c1.51,0.47,2.91,0.35,4.23-0.36s2.2-1.82,2.67-3.34c0.47-1.53,0.36-2.96-0.34-4.3c-0.7-1.34-1.81-2.24-3.33-2.71
			c-1.48-0.46-2.88-0.33-4.21,0.38C372.88,245.91,371.99,247.01,371.53,248.5z"/>
		<path class="st3" d="M372.49,238.54l1.7-7.46l1.82,0.41l-1.24,5.46l3.98,0.9l1.24-5.46l1.82,0.41l-1.24,5.46l6.64,1.51l-0.46,2
			L372.49,238.54z"/>
		<path class="st3" d="M374.92,227.38l1.7-11.86l1.84,0.26l-0.71,4.95l12.64,1.81l-0.29,2.04l-12.64-1.81l-0.7,4.87L374.92,227.38z"
			/>
		<path class="st3" d="M377.44,203.9l0.13-2.05l14.58,0.93l-0.13,2.05l-6.35-0.4l-0.51,8.04l6.35,0.4l-0.13,2.05l-14.58-0.93
			l0.13-2.05l6.3,0.4l0.51-8.04L377.44,203.9z"/>
		<path class="st3" d="M377.44,194.53l-0.03-1.44l14.58-6.68l0.04,2.1l-4.3,1.99l0.11,6.12l4.36,1.72l0.04,2.11L377.44,194.53z
			 M385.89,191.37l-5.25,2.41l5.33,2.05L385.89,191.37z"/>
		<path class="st3" d="M377.17,185.36l-0.15-2.05l14.57-1.03l0.15,2.05L377.17,185.36z"/>
		<path class="st3" d="M376.8,180.34l-0.23-2.04l12.62-1.45l-0.74-6.41l1.89-0.22l0.97,8.45L376.8,180.34z"/>
		<path class="st3" d="M374.72,165.98l-0.26-1.42l13.28-8.99l0.38,2.07l-3.91,2.67l1.11,6.02l4.58,0.98l0.38,2.07L374.72,165.98z
			 M382.54,161.47l-4.78,3.24l5.59,1.15L382.54,161.47z"/>
		<path class="st3" d="M370.09,146.14l-0.52-1.88l14.09-3.87l0.47,1.7l-8.31,12.23l10.85-2.98l0.51,1.86l-14.09,3.87l-0.44-1.6
			l8.38-12.33L370.09,146.14z"/>
		<path class="st3" d="M382.4,136.65l-13.66,5.12l-1.7-4.53c-0.68-1.83-0.95-3.38-0.79-4.65c0.16-1.27,0.66-2.43,1.51-3.46
			c0.85-1.03,1.91-1.79,3.19-2.27c0.91-0.34,1.85-0.5,2.82-0.47c0.97,0.03,1.89,0.25,2.76,0.65c0.9,0.41,1.68,0.98,2.33,1.72
			c0.39,0.43,0.7,0.84,0.93,1.24c0.23,0.4,0.56,1.19,1.01,2.38L382.4,136.65z M368.86,136.8l0.9,2.4l10.17-3.81l-0.92-2.46
			c-0.36-0.96-0.71-1.68-1.04-2.16c-0.33-0.48-0.67-0.86-1.01-1.14c-0.34-0.28-0.71-0.51-1.12-0.69c-1.33-0.58-2.75-0.59-4.25-0.03
			c-1.47,0.55-2.48,1.49-3.05,2.81c-0.21,0.49-0.34,1.01-0.39,1.55c-0.05,0.55-0.03,1.04,0.05,1.49
			C368.3,135.19,368.52,135.87,368.86,136.8z"/>
	</g>
	<g>
		<path class="st3" d="M67.73,73.42l-1.07,1.32l-3.69-3c-0.43-0.35-0.95-0.37-1.57-0.07c-0.47,0.23-0.89,0.58-1.26,1.03
			c-0.36,0.44-0.56,0.91-0.6,1.39c-0.06,0.59,0.13,1.06,0.56,1.41l0.53,0.43c0.13-0.22,0.22-0.36,0.27-0.42
			c0.37-0.46,0.85-0.72,1.43-0.78c0.59-0.07,1.1,0.08,1.54,0.44c0.46,0.37,0.7,0.85,0.74,1.45c0.04,0.6-0.13,1.11-0.48,1.56
			c-0.38,0.47-0.86,0.74-1.43,0.82c-0.57,0.08-1.09-0.07-1.56-0.45l-1.96-1.59c-0.84-0.68-1.24-1.53-1.2-2.53
			c0.04-0.89,0.39-1.75,1.06-2.57c0.72-0.88,1.5-1.35,2.34-1.4l-0.95-0.77c-0.44-0.36-0.98-0.37-1.64-0.06
			c-0.51,0.25-0.96,0.62-1.37,1.12c-0.45,0.56-0.71,1.13-0.78,1.74c-0.08,0.67,0.09,1.24,0.5,1.71l-1.04,1.28
			c-0.8-0.79-1.16-1.71-1.09-2.76c0.07-0.98,0.5-1.97,1.3-2.95c0.52-0.64,1.1-1.12,1.75-1.45c-0.03-0.52-0.25-0.95-0.66-1.28
			l1.21-1.49c0.59,0.76,0.9,1.52,0.94,2.29c0.8-0.06,1.5,0.16,2.1,0.64L67.73,73.42z M63.1,76.11c-0.2-0.16-0.43-0.23-0.69-0.2
			c-0.26,0.03-0.47,0.14-0.63,0.34c-0.16,0.2-0.23,0.43-0.2,0.69c0.03,0.26,0.14,0.47,0.34,0.63c0.2,0.16,0.43,0.23,0.69,0.2
			c0.26-0.03,0.47-0.14,0.63-0.34c0.16-0.2,0.23-0.43,0.2-0.69C63.41,76.48,63.3,76.27,63.1,76.11z"/>
		<path class="st3" d="M75.56,64.99l-1.17,1.24c-1.42,0.12-2.65,0.43-3.67,0.95l0.1,0.09c0.43,0.4,0.63,0.91,0.61,1.51
			c-0.02,0.6-0.22,1.11-0.61,1.52c-0.42,0.44-0.94,0.67-1.56,0.68c-0.62,0.02-1.15-0.18-1.59-0.6c-0.44-0.42-0.66-0.93-0.67-1.55
			c-0.01-0.62,0.19-1.14,0.61-1.58l0.13-0.14l-2.08-1.97c-0.1,0.16-0.19,0.28-0.28,0.38c-0.4,0.43-0.89,0.64-1.47,0.65
			c-0.58,0.01-1.08-0.19-1.5-0.59c-0.41-0.39-0.63-0.87-0.64-1.44c-0.02-0.57,0.18-1.07,0.58-1.49c0.43-0.45,0.94-0.68,1.53-0.69
			c0.59-0.01,1.12,0.21,1.58,0.65l3.79,3.59c1.36-0.71,2.64-1.11,3.84-1.21l-6.67-6.32l1.17-1.24L75.56,64.99z M64.51,63.42
			c-0.19-0.18-0.41-0.26-0.67-0.25c-0.26,0.01-0.48,0.1-0.65,0.29c-0.18,0.19-0.26,0.41-0.25,0.67c0.01,0.26,0.1,0.48,0.29,0.65
			c0.19,0.18,0.41,0.26,0.67,0.25c0.26-0.01,0.48-0.1,0.65-0.29c0.18-0.19,0.26-0.41,0.25-0.67C64.79,63.81,64.7,63.59,64.51,63.42z
			 M69.85,68.1c-0.19-0.18-0.41-0.26-0.67-0.25c-0.26,0.01-0.48,0.1-0.65,0.29c-0.18,0.19-0.26,0.41-0.25,0.67
			c0.01,0.26,0.1,0.48,0.29,0.65c0.19,0.18,0.41,0.26,0.67,0.25c0.26-0.01,0.48-0.1,0.65-0.29c0.18-0.19,0.26-0.41,0.25-0.67
			C70.13,68.49,70.03,68.27,69.85,68.1z"/>
		<path class="st3" d="M82.37,58.65l-1.26,1.15l-5.4-5.88c-0.35-0.38-0.76-0.57-1.23-0.57c-0.47,0-0.93,0.2-1.38,0.61
			c-0.45,0.41-0.67,0.89-0.69,1.44c-0.01,0.55,0.18,1.06,0.58,1.53l-1.21,1.12c-0.7-0.85-1.03-1.74-0.98-2.67
			c0.05-0.93,0.48-1.77,1.29-2.51c0.76-0.69,1.57-1.09,2.44-1.18c0.87-0.09,1.67,0.25,2.39,1.04L82.37,58.65z"/>
		<path class="st3" d="M90.97,51.58l-1.33,1.07l-4.69-5.83c-0.41-0.51-0.98-0.76-1.7-0.75c-0.65,0.03-1.25,0.27-1.8,0.71
			c-0.64,0.52-0.98,1.15-1.02,1.89c-0.04,0.74,0.17,1.39,0.62,1.96c0.13,0.16,0.37,0.39,0.73,0.7c0.36,0.31,0.65,0.6,0.86,0.88
			l0.48,0.6c-0.01-0.01-0.11-0.19-0.3-0.52c-0.19-0.33-0.33-0.58-0.45-0.75c-0.34-0.71-0.52-1.39-0.54-2.03
			c-0.04-0.81,0.18-1.41,0.67-1.81c0.39-0.31,0.83-0.44,1.33-0.4c0.5,0.04,0.91,0.26,1.22,0.64c0.3,0.37,0.42,0.81,0.36,1.32
			c-0.06,0.51-0.29,0.92-0.67,1.23c-0.36,0.29-0.78,0.42-1.27,0.39c0.62,1.65,1.5,3.18,2.65,4.61l-1.33,1.07l-1.1-1.37
			c-0.54-0.67-1.25-1.31-2.12-1.91c-0.87-0.6-1.49-1.13-1.86-1.59c-0.79-0.99-1.08-2.07-0.86-3.26c0.2-1.13,0.79-2.08,1.78-2.88
			c0.9-0.72,1.85-1.1,2.84-1.12c1.14-0.02,2.08,0.43,2.83,1.36L90.97,51.58z M84.27,48.56c-0.15-0.19-0.34-0.29-0.57-0.32
			c-0.23-0.03-0.44,0.04-0.63,0.19c-0.19,0.15-0.29,0.34-0.31,0.56c-0.02,0.23,0.05,0.43,0.2,0.62c0.15,0.19,0.33,0.29,0.55,0.31
			c0.22,0.02,0.42-0.04,0.61-0.19c0.19-0.15,0.29-0.34,0.33-0.56C84.48,48.95,84.42,48.75,84.27,48.56z"/>
		<path class="st3" d="M100.38,44.93l-1.4,0.97c-1.42-0.18-2.68-0.12-3.79,0.18l0.08,0.11c0.33,0.48,0.43,1.02,0.29,1.6
			c-0.14,0.59-0.44,1.04-0.91,1.37c-0.5,0.34-1.05,0.46-1.66,0.35c-0.61-0.11-1.09-0.42-1.44-0.91c-0.34-0.5-0.46-1.05-0.34-1.65
			c0.12-0.6,0.42-1.08,0.92-1.42l0.16-0.11l-1.63-2.35c-0.13,0.13-0.25,0.24-0.35,0.31c-0.48,0.33-1.01,0.45-1.57,0.34
			c-0.57-0.11-1.02-0.4-1.35-0.89c-0.32-0.47-0.43-0.98-0.33-1.54c0.1-0.56,0.39-1.01,0.88-1.34c0.51-0.35,1.06-0.48,1.64-0.36
			c0.58,0.11,1.05,0.43,1.42,0.96l2.97,4.3c1.47-0.42,2.81-0.55,4.01-0.4l-5.23-7.55l1.4-0.97L100.38,44.93z M89.89,41.12
			c-0.15-0.21-0.35-0.34-0.6-0.39c-0.25-0.05-0.49,0-0.7,0.15c-0.21,0.15-0.34,0.35-0.39,0.6c-0.05,0.26,0,0.49,0.15,0.7
			c0.15,0.21,0.35,0.34,0.6,0.39c0.25,0.05,0.49,0,0.7-0.15c0.21-0.15,0.34-0.35,0.39-0.6C90.09,41.57,90.04,41.33,89.89,41.12z
			 M94.15,46.8c-0.15-0.21-0.35-0.34-0.6-0.39c-0.25-0.05-0.49,0-0.7,0.15s-0.34,0.35-0.39,0.6c-0.05,0.26,0,0.49,0.15,0.7
			c0.15,0.21,0.35,0.34,0.6,0.39c0.25,0.05,0.49,0,0.7-0.15c0.21-0.15,0.34-0.35,0.39-0.6C94.35,47.24,94.3,47.01,94.15,46.8z"/>
		<path class="st3" d="M109.92,39.16l-1.47,0.87l-3.82-6.44c-0.34-0.57-0.86-0.89-1.57-0.98c-0.65-0.06-1.28,0.09-1.88,0.45
			c-0.71,0.42-1.14,0.99-1.28,1.72c-0.15,0.73-0.03,1.4,0.34,2.03c0.1,0.17,0.31,0.44,0.62,0.8c0.31,0.36,0.55,0.69,0.73,0.99
			l0.37,0.61c-0.04-0.06-0.11-0.23-0.22-0.51c-0.11-0.27-0.21-0.55-0.31-0.81c-0.24-0.76-0.33-1.46-0.29-2.1
			c0.1-0.8,0.41-1.37,0.95-1.68c0.43-0.25,0.89-0.32,1.38-0.21c0.49,0.11,0.87,0.38,1.12,0.81c0.24,0.41,0.3,0.86,0.17,1.36
			c-0.13,0.49-0.41,0.87-0.84,1.12c-0.39,0.23-0.83,0.3-1.32,0.21c0.38,1.72,1.04,3.36,1.97,4.94l-1.47,0.87l-0.9-1.51
			c-0.44-0.74-1.05-1.47-1.83-2.19c-0.78-0.72-1.32-1.33-1.62-1.84c-0.65-1.09-0.78-2.2-0.39-3.35c0.36-1.09,1.08-1.95,2.17-2.6
			c0.61-0.37,1.29-0.59,2.02-0.69c0.2-0.48,0.16-0.97-0.13-1.46l1.66-0.98c0.33,0.98,0.34,1.83,0.05,2.56
			c0.85,0.28,1.51,0.82,1.98,1.61L109.92,39.16z M103.72,35.23c-0.12-0.2-0.3-0.34-0.52-0.39c-0.23-0.06-0.44-0.03-0.65,0.1
			c-0.21,0.12-0.33,0.29-0.38,0.51c-0.05,0.22-0.01,0.43,0.11,0.64c0.12,0.21,0.29,0.33,0.5,0.39c0.21,0.05,0.42,0.02,0.63-0.1
			s0.34-0.29,0.4-0.51C103.87,35.65,103.84,35.44,103.72,35.23z"/>
		<path class="st3" d="M104.05,22.26c1.04,2.9,0.33,5.03-2.15,6.38c-0.96,0.53-1.81,0.74-2.54,0.62c-0.73-0.11-1.26-0.47-1.6-1.09
			c-0.26-0.47-0.31-0.95-0.16-1.45c0.15-0.5,0.45-0.87,0.92-1.13c0.5-0.27,1-0.33,1.49-0.17c0.49,0.16,0.86,0.46,1.11,0.91
			c0.24,0.43,0.29,0.82,0.17,1.16c1.64-0.98,2.09-2.47,1.35-4.47L104.05,22.26z M100.15,26.88c-0.11-0.21-0.28-0.35-0.51-0.41
			c-0.22-0.07-0.44-0.04-0.65,0.07c-0.21,0.11-0.34,0.28-0.4,0.5c-0.06,0.22-0.03,0.43,0.09,0.64c0.11,0.21,0.28,0.34,0.49,0.41
			c0.21,0.06,0.42,0.04,0.63-0.08c0.21-0.11,0.35-0.28,0.42-0.5C100.29,27.3,100.27,27.08,100.15,26.88z"/>
		<path class="st3" d="M120,33.96l-1.52,0.77l-2.14-4.25c-0.25-0.49-0.72-0.73-1.4-0.71c-0.52,0.02-1.05,0.16-1.57,0.42
			c-0.51,0.26-0.88,0.6-1.12,1.02c-0.29,0.52-0.32,1.02-0.07,1.51l0.31,0.61c0.11-0.1,0.25-0.19,0.42-0.27
			c0.52-0.26,1.07-0.31,1.63-0.13c0.56,0.18,0.97,0.52,1.23,1.03c0.26,0.52,0.29,1.07,0.08,1.62c-0.21,0.56-0.57,0.97-1.08,1.22
			c-0.54,0.27-1.09,0.33-1.64,0.17c-0.55-0.16-0.97-0.51-1.24-1.05l-1.14-2.26c-0.49-0.97-0.51-1.9-0.06-2.8
			c0.4-0.8,1.07-1.43,2.02-1.91c1.01-0.51,1.92-0.62,2.7-0.32l-0.55-1.09c-0.25-0.5-0.74-0.74-1.47-0.72
			c-0.56,0.02-1.13,0.17-1.71,0.46c-0.64,0.32-1.11,0.74-1.43,1.27c-0.34,0.58-0.43,1.17-0.25,1.77l-1.47,0.74
			c-0.41-1.05-0.36-2.04,0.14-2.96c0.46-0.87,1.26-1.59,2.39-2.16c1.01-0.51,2.01-0.72,2.99-0.61c1.12,0.11,1.93,0.65,2.42,1.62
			L120,33.96z M114.68,34.52c-0.12-0.23-0.3-0.38-0.54-0.47c-0.25-0.08-0.48-0.06-0.71,0.05c-0.23,0.12-0.38,0.3-0.47,0.54
			c-0.08,0.25-0.06,0.48,0.05,0.71c0.12,0.23,0.3,0.38,0.54,0.47c0.25,0.08,0.48,0.06,0.71-0.05c0.23-0.12,0.38-0.3,0.47-0.54
			C114.81,34.98,114.8,34.74,114.68,34.52z"/>
		<path class="st3" d="M128.7,27.14c0.78,1.84-0.07,3.29-2.57,4.35c-2.48,1.06-4.11,0.66-4.89-1.17l-0.5-1.16
			c-0.34-0.81-0.25-1.53,0.29-2.15c-0.99-0.2-1.69-0.8-2.13-1.81c-0.32-0.74-0.37-1.44-0.16-2.1c0.21-0.66,0.68-1.14,1.4-1.45
			c0.51-0.22,1-0.24,1.49-0.08c0.49,0.16,0.84,0.5,1.05,1c0.19,0.46,0.2,0.92,0.02,1.4c-0.18,0.48-0.53,0.83-1.06,1.05
			c-0.27,0.12-0.53,0.18-0.77,0.18c0.41,0.58,0.85,0.77,1.32,0.57l1.8-0.77l0.53,1.24l-1.8,0.76c-0.27,0.11-0.44,0.33-0.51,0.63
			c-0.07,0.31-0.04,0.61,0.09,0.91l0.49,1.16c0.38,0.9,1.3,1.05,2.74,0.44c1.46-0.62,2-1.39,1.61-2.29l-3.22-7.57l1.57-0.67
			L128.7,27.14z M121.76,22.99c-0.1-0.24-0.26-0.4-0.48-0.48c-0.22-0.09-0.45-0.08-0.69,0.02c-0.24,0.1-0.4,0.26-0.49,0.48
			c-0.09,0.22-0.08,0.44,0.02,0.68c0.1,0.24,0.26,0.4,0.48,0.48c0.22,0.09,0.45,0.08,0.69-0.02c0.24-0.1,0.4-0.26,0.49-0.48
			C121.86,23.45,121.86,23.22,121.76,22.99z"/>
		<path class="st3" d="M135.83,25.48c0.2,0.55,0.17,1.09-0.09,1.61c-0.25,0.52-0.65,0.87-1.19,1.06c-0.59,0.21-1.15,0.18-1.69-0.07
			c-0.54-0.26-0.91-0.69-1.13-1.29l-2.98-8.45l1.61-0.57l2.35,6.67c0.07-0.07,0.22-0.14,0.45-0.22c0.54-0.19,1.07-0.16,1.59,0.08
			C135.28,24.53,135.64,24.93,135.83,25.48z M134.74,25.87c-0.09-0.24-0.25-0.42-0.48-0.53c-0.23-0.11-0.47-0.12-0.71-0.04
			c-0.24,0.09-0.42,0.25-0.53,0.48c-0.11,0.23-0.13,0.47-0.04,0.71c0.09,0.24,0.25,0.42,0.48,0.53c0.23,0.11,0.47,0.13,0.71,0.04
			c0.24-0.09,0.42-0.25,0.53-0.48C134.82,26.35,134.83,26.11,134.74,25.87z M140.68,23.77c0.2,0.55,0.17,1.09-0.09,1.61
			c-0.25,0.52-0.65,0.87-1.19,1.06c-0.59,0.21-1.15,0.18-1.69-0.07c-0.54-0.26-0.91-0.69-1.13-1.29l-2.98-8.45l1.61-0.57l2.35,6.67
			c0.07-0.06,0.22-0.14,0.45-0.22c0.54-0.19,1.07-0.16,1.59,0.08C140.13,22.82,140.49,23.22,140.68,23.77z M139.59,24.16
			c-0.08-0.24-0.25-0.42-0.48-0.53c-0.23-0.11-0.47-0.12-0.71-0.04c-0.24,0.09-0.42,0.25-0.53,0.48c-0.11,0.23-0.12,0.47-0.04,0.71
			c0.09,0.24,0.25,0.42,0.48,0.53c0.23,0.11,0.47,0.12,0.71,0.04c0.24-0.08,0.42-0.24,0.53-0.48
			C139.67,24.64,139.68,24.4,139.59,24.16z"/>
		<path class="st3" d="M152.89,22.29l-1.86,0.51l-4.76-7.53l-0.3,8.93l-1.78,0.49l-1.88-6.81c-0.17,0.08-0.31,0.14-0.44,0.18
			c-0.57,0.16-1.1,0.09-1.6-0.2c-0.5-0.29-0.83-0.72-0.98-1.28c-0.15-0.55-0.09-1.07,0.2-1.57c0.28-0.5,0.7-0.82,1.27-0.98
			c0.6-0.17,1.16-0.1,1.67,0.2c0.51,0.3,0.85,0.75,1.02,1.37l1.09,3.95c0.13,0.46,0.28,1.43,0.46,2.9
			c-0.06-1.71-0.07-2.64-0.05-2.78l0.3-6.16l1.01-0.28l3.41,5.13c0.06,0.1,0.52,0.9,1.38,2.41c-0.6-1.35-0.97-2.26-1.09-2.72
			l-1.62-5.89l1.64-0.45L152.89,22.29z M142.22,15.79c-0.07-0.25-0.22-0.44-0.44-0.56c-0.23-0.13-0.46-0.16-0.71-0.09
			c-0.25,0.07-0.44,0.22-0.56,0.44c-0.13,0.23-0.16,0.46-0.09,0.71c0.07,0.25,0.22,0.44,0.44,0.56c0.23,0.13,0.46,0.16,0.71,0.09
			c0.25-0.07,0.44-0.21,0.56-0.44C142.26,16.27,142.29,16.03,142.22,15.79z"/>
		<path class="st3" d="M164.72,19.84l-1.67,0.33l-1.74-8.71c-0.11-0.56-0.3-0.81-0.57-0.76c-0.23,0.05-0.37,0.21-0.4,0.5l-1.38,9.78
			l-1.89,0.38l-1.39-6.93c-0.17,0.07-0.32,0.12-0.45,0.15c-0.58,0.12-1.1,0.01-1.58-0.32c-0.48-0.33-0.77-0.78-0.89-1.35
			c-0.11-0.56-0.01-1.07,0.31-1.55c0.32-0.47,0.76-0.77,1.34-0.88c0.61-0.12,1.16-0.02,1.65,0.32c0.49,0.33,0.79,0.81,0.92,1.44
			l0.8,4.02c0.12,0.61,0.2,1.59,0.25,2.92c0.04-0.83,0.11-1.76,0.23-2.79l0.55-5.1c0.12-1.16,0.69-1.84,1.7-2.02
			c1.35-0.25,2.18,0.38,2.48,1.89L164.72,19.84z M155.73,12.35c-0.05-0.25-0.18-0.45-0.4-0.59c-0.22-0.14-0.45-0.19-0.7-0.14
			c-0.25,0.05-0.45,0.18-0.59,0.4c-0.14,0.22-0.19,0.45-0.14,0.7c0.05,0.25,0.18,0.45,0.4,0.59c0.22,0.14,0.45,0.19,0.7,0.14
			c0.25-0.05,0.45-0.18,0.59-0.4C155.74,12.84,155.78,12.6,155.73,12.35z"/>
		<path class="st3" d="M174.93,15.6c0.27,1.98-0.95,3.15-3.63,3.51c-2.67,0.36-4.14-0.45-4.41-2.43l-0.17-1.25
			c-0.12-0.87,0.17-1.54,0.85-2c-0.9-0.45-1.42-1.22-1.57-2.31c-0.11-0.8,0.03-1.49,0.4-2.07c0.38-0.58,0.95-0.92,1.74-1.02
			c0.55-0.07,1.03,0.03,1.46,0.32c0.43,0.29,0.68,0.7,0.75,1.24c0.07,0.49-0.05,0.94-0.35,1.35c-0.3,0.41-0.73,0.65-1.3,0.73
			c-0.29,0.04-0.56,0.03-0.79-0.03c0.24,0.67,0.61,0.97,1.12,0.9l1.93-0.26l0.18,1.34l-1.93,0.26c-0.29,0.04-0.51,0.2-0.66,0.47
			c-0.15,0.28-0.2,0.58-0.16,0.9l0.17,1.25c0.13,0.97,0.97,1.36,2.53,1.15c1.57-0.21,2.29-0.81,2.16-1.78l-1.1-8.15l1.69-0.23
			L174.93,15.6z M169.34,9.74c-0.03-0.25-0.15-0.45-0.33-0.59c-0.19-0.14-0.41-0.19-0.67-0.16c-0.26,0.03-0.46,0.15-0.6,0.33
			c-0.14,0.19-0.2,0.41-0.16,0.66c0.03,0.25,0.15,0.45,0.33,0.59c0.19,0.14,0.41,0.19,0.67,0.16c0.26-0.03,0.46-0.14,0.6-0.33
			C169.32,10.22,169.37,10,169.34,9.74z"/>
		<path class="st3" d="M174.74,0c0.01,0.77-0.18,1.35-0.57,1.73c-0.38,0.38-0.92,0.71-1.61,0.98c0.31,0.12,0.56,0.31,0.76,0.57
			c0.2,0.26,0.32,0.57,0.36,0.92c0.05,0.49-0.08,0.93-0.39,1.31c-0.31,0.38-0.71,0.6-1.2,0.65c-0.49,0.05-0.93-0.08-1.31-0.39
			c-0.38-0.31-0.6-0.72-0.65-1.23c-0.14-1.31,0.45-2.23,1.76-2.75c0.75-0.28,1.21-0.59,1.38-0.92c0.18-0.33,0.26-0.58,0.24-0.74
			L174.74,0z M172.7,4.3c-0.02-0.2-0.12-0.37-0.29-0.51c-0.17-0.14-0.36-0.2-0.56-0.18c-0.2,0.02-0.37,0.12-0.51,0.29
			c-0.14,0.17-0.2,0.36-0.18,0.56c0.02,0.2,0.12,0.37,0.29,0.51c0.17,0.14,0.36,0.2,0.56,0.18c0.2-0.02,0.37-0.12,0.51-0.29
			C172.66,4.69,172.72,4.5,172.7,4.3z"/>
		<path class="st3" d="M186.8,17.42l-1.7,0.12l-0.51-7.19c-0.08-1.17-0.46-1.99-1.14-2.46l-1.61,1.34l-1.76-1.1
			c-0.74,0.44-1.06,1.33-0.97,2.69c0.03,0.44,0.21,1.08,0.54,1.92c0.33,0.84,0.5,1.47,0.53,1.89c0.02,0.29-0.01,0.6-0.1,0.92
			c0.09-0.26,0.33-0.64,0.72-1.13s0.77-0.86,1.13-1.13c-0.5,0-0.9-0.16-1.21-0.49c-0.31-0.33-0.48-0.7-0.51-1.12
			c-0.04-0.49,0.1-0.93,0.42-1.3c0.31-0.37,0.72-0.58,1.21-0.61c0.49-0.04,0.93,0.11,1.3,0.43c0.37,0.32,0.58,0.73,0.61,1.22
			c0.06,0.79-0.3,1.65-1.06,2.58c-1.01,1.25-1.6,2.05-1.76,2.41c-0.24,0.55-0.34,1.03-0.31,1.43l-1.7,0.12
			c-0.01-0.7-0.04-1.4-0.1-2.12c-0.05-0.73-0.22-1.4-0.49-2.01c-0.58-1.28-0.89-2.25-0.94-2.91c-0.07-1.01,0.12-1.89,0.58-2.66
			c0.46-0.77,1.14-1.31,2.07-1.64l1.65,1.07l1.37-1.28c1.98,0.15,3.05,1.4,3.22,3.74L186.8,17.42z M182.79,11.48
			c-0.02-0.24-0.11-0.43-0.27-0.57c-0.17-0.14-0.37-0.21-0.61-0.19c-0.24,0.02-0.43,0.11-0.57,0.27c-0.14,0.17-0.21,0.37-0.19,0.61
			c0.02,0.24,0.11,0.43,0.27,0.57c0.17,0.14,0.37,0.21,0.61,0.19c0.24-0.02,0.43-0.11,0.57-0.27
			C182.74,11.92,182.8,11.71,182.79,11.48z"/>
		<path class="st3" d="M197.66,17.22l-1.71,0.02l-0.08-7.27c-0.01-0.75-0.24-1.34-0.71-1.77c-0.46-0.43-1.07-0.65-1.82-0.64
			c-1.1,0.01-1.93,0.48-2.49,1.4c0.86,0.16,1.48,0.56,1.86,1.22c-0.93,0.56-1.39,1.23-1.38,2l0.06,5.11l-1.7,0.02l-0.06-5.22
			c-0.01-0.77,0.36-1.38,1.11-1.83c-0.46-0.31-1.02-0.41-1.68-0.31c0.02-1.14,0.45-2.08,1.29-2.82c0.76-0.69,1.74-1.04,2.93-1.05
			c1.32-0.01,2.36,0.33,3.13,1.02c0.77,0.7,1.16,1.65,1.17,2.86L197.66,17.22z"/>
		<path class="st3" d="M204.84,15.6c-0.03,0.59-0.26,1.07-0.69,1.45c-0.43,0.38-0.93,0.56-1.5,0.53c-0.62-0.03-1.13-0.27-1.54-0.71
			c-0.4-0.44-0.59-0.98-0.56-1.62l0.43-8.95l1.7,0.08l-0.34,7.06c0.09-0.03,0.26-0.04,0.5-0.03c0.57,0.03,1.05,0.25,1.44,0.68
			C204.69,14.51,204.87,15.02,204.84,15.6z M203.69,15.55c0.01-0.26-0.07-0.48-0.24-0.67c-0.17-0.19-0.39-0.29-0.65-0.31
			c-0.26-0.01-0.48,0.07-0.67,0.24c-0.19,0.17-0.29,0.39-0.31,0.65c-0.01,0.26,0.07,0.48,0.24,0.67c0.17,0.19,0.39,0.29,0.65,0.31
			c0.26,0.01,0.48-0.07,0.67-0.24C203.57,16.02,203.67,15.8,203.69,15.55z M209.98,15.85c-0.03,0.59-0.26,1.07-0.69,1.45
			c-0.43,0.38-0.93,0.56-1.5,0.53c-0.62-0.03-1.13-0.27-1.54-0.71c-0.4-0.44-0.59-0.98-0.55-1.62l0.43-8.95l1.7,0.08l-0.34,7.06
			c0.09-0.03,0.26-0.04,0.5-0.03c0.57,0.03,1.05,0.25,1.44,0.67C209.82,14.76,210.01,15.26,209.98,15.85z M208.82,15.79
			c0.01-0.26-0.07-0.48-0.24-0.67c-0.17-0.19-0.39-0.29-0.65-0.31c-0.26-0.01-0.48,0.07-0.67,0.24c-0.19,0.17-0.29,0.39-0.31,0.65
			c-0.01,0.26,0.07,0.48,0.24,0.67c0.17,0.19,0.39,0.29,0.64,0.31c0.26,0.01,0.48-0.07,0.67-0.24
			C208.71,16.27,208.81,16.05,208.82,15.79z"/>
		<path class="st3" d="M219.76,18.78l-1.7-0.19l0.78-7.16c0.13-1.17-0.1-2.04-0.68-2.62l-1.83,1.03l-1.53-1.4
			c-0.81,0.3-1.29,1.12-1.43,2.47c-0.05,0.44,0.01,1.1,0.18,1.98c0.17,0.89,0.23,1.54,0.19,1.96c-0.03,0.29-0.12,0.59-0.26,0.88
			c0.14-0.24,0.44-0.57,0.91-0.98c0.47-0.41,0.91-0.71,1.32-0.91c-0.49-0.09-0.85-0.32-1.1-0.7c-0.24-0.38-0.34-0.78-0.3-1.19
			c0.05-0.49,0.27-0.89,0.64-1.2c0.38-0.31,0.81-0.44,1.3-0.38c0.49,0.05,0.89,0.27,1.2,0.66c0.31,0.38,0.44,0.82,0.38,1.31
			c-0.09,0.78-0.59,1.57-1.5,2.35c-1.22,1.05-1.94,1.73-2.16,2.06c-0.33,0.5-0.52,0.95-0.56,1.35l-1.69-0.19
			c0.11-0.69,0.21-1.39,0.28-2.1c0.08-0.73,0.04-1.42-0.12-2.06c-0.34-1.37-0.47-2.38-0.4-3.03c0.11-1,0.46-1.84,1.04-2.51
			c0.58-0.67,1.36-1.09,2.33-1.24l1.43,1.35l1.58-1.02c1.92,0.51,2.75,1.92,2.49,4.26L219.76,18.78z M216.89,12.22
			c0.03-0.24-0.03-0.44-0.17-0.61c-0.14-0.17-0.33-0.27-0.56-0.3c-0.24-0.03-0.44,0.03-0.61,0.17c-0.17,0.14-0.27,0.33-0.3,0.56
			c-0.03,0.24,0.03,0.44,0.17,0.61c0.14,0.17,0.33,0.27,0.56,0.3c0.24,0.03,0.44-0.03,0.61-0.17
			C216.76,12.64,216.86,12.45,216.89,12.22z"/>
		<path class="st3" d="M221.75,6.22l-1.69-0.24l0.54-3.84l1.69,0.24L221.75,6.22z"/>
		<path class="st3" d="M228.83,20.25l-1.65-0.28l-4.11-6.58l1.2-1l3.27,5.24l0.78-4.66c-0.06,0.01-0.23-0.01-0.52-0.06
			c-0.56-0.09-1-0.36-1.33-0.8c-0.33-0.44-0.44-0.94-0.34-1.52c0.1-0.58,0.38-1.04,0.85-1.38c0.47-0.34,0.97-0.46,1.51-0.37
			c0.63,0.11,1.12,0.4,1.47,0.88c0.35,0.48,0.47,1.04,0.36,1.69L228.83,20.25z M229.07,11.03c0.04-0.25-0.01-0.47-0.17-0.68
			c-0.15-0.21-0.35-0.33-0.61-0.37c-0.25-0.04-0.49,0.01-0.7,0.15c-0.21,0.15-0.34,0.34-0.38,0.59c-0.04,0.25,0.01,0.47,0.17,0.68
			c0.15,0.21,0.35,0.33,0.61,0.37c0.25,0.04,0.49-0.01,0.7-0.15C228.9,11.47,229.03,11.28,229.07,11.03z"/>
		<path class="st3" d="M236.21,19.89c-0.13,0.57-0.44,1.01-0.93,1.31c-0.49,0.3-1.01,0.39-1.57,0.27c-0.61-0.14-1.07-0.46-1.39-0.96
			c-0.32-0.5-0.41-1.07-0.26-1.69l1.98-8.74l1.66,0.38l-1.56,6.89c0.1-0.02,0.26,0,0.49,0.06c0.55,0.13,0.99,0.43,1.3,0.91
			C236.24,18.79,236.34,19.32,236.21,19.89z M235.08,19.63c0.06-0.25,0.02-0.48-0.12-0.7c-0.14-0.22-0.33-0.36-0.58-0.41
			c-0.25-0.06-0.49-0.02-0.7,0.12c-0.22,0.14-0.36,0.33-0.41,0.58c-0.06,0.25-0.02,0.49,0.12,0.7c0.14,0.22,0.33,0.36,0.58,0.41
			c0.25,0.06,0.49,0.02,0.7-0.12C234.88,20.08,235.02,19.88,235.08,19.63z M241.22,21.02c-0.13,0.57-0.44,1.01-0.93,1.31
			c-0.49,0.3-1.01,0.39-1.57,0.27c-0.61-0.14-1.07-0.46-1.39-0.96c-0.32-0.5-0.41-1.07-0.26-1.7l1.98-8.74l1.66,0.38l-1.56,6.89
			c0.1-0.02,0.26,0,0.5,0.06c0.55,0.13,0.99,0.43,1.3,0.91C241.26,19.92,241.35,20.45,241.22,21.02z M240.1,20.77
			c0.06-0.25,0.02-0.48-0.12-0.7c-0.14-0.22-0.33-0.36-0.58-0.41c-0.25-0.06-0.49-0.02-0.71,0.12c-0.22,0.14-0.36,0.33-0.41,0.58
			c-0.06,0.25-0.02,0.49,0.12,0.7c0.14,0.22,0.33,0.36,0.58,0.41c0.25,0.06,0.49,0.02,0.7-0.12
			C239.9,21.21,240.04,21.02,240.1,20.77z"/>
		<path class="st3" d="M251.18,25.89l-1.63-0.48l1.73-5.85c0.14-0.47,0.11-0.74-0.08-0.8c-0.14-0.04-0.41,0.12-0.8,0.48l-5.18,4.89
			l-1.53-0.45l2.01-6.78c-0.19-0.02-0.34-0.04-0.46-0.08c-0.56-0.17-0.98-0.51-1.25-1.02c-0.27-0.51-0.32-1.05-0.15-1.61
			c0.16-0.54,0.49-0.95,0.99-1.23c0.5-0.27,1.03-0.32,1.6-0.16c0.6,0.18,1.03,0.53,1.31,1.05c0.28,0.52,0.32,1.09,0.14,1.71
			l-1.16,3.93c-0.14,0.46-0.52,1.36-1.14,2.7c0.4-0.7,0.87-1.32,1.41-1.85l2.19-2.08c0.47-0.43,0.84-0.65,1.11-0.65
			c-0.22-0.54-0.26-1.05-0.12-1.53c0.17-0.56,0.5-0.98,1-1.25c0.5-0.27,1.03-0.32,1.6-0.16c0.56,0.17,0.98,0.5,1.25,1
			c0.27,0.5,0.33,1.03,0.16,1.6c-0.17,0.58-0.57,1.02-1.19,1.31c0.1,0.51,0.07,1.02-0.08,1.53L251.18,25.89z M246.73,15.08
			c0.07-0.25,0.05-0.48-0.08-0.71c-0.12-0.23-0.31-0.38-0.55-0.45c-0.25-0.07-0.48-0.05-0.71,0.08c-0.23,0.12-0.38,0.31-0.45,0.55
			c-0.07,0.25-0.05,0.48,0.08,0.71c0.12,0.23,0.31,0.38,0.55,0.45c0.25,0.07,0.48,0.05,0.71-0.08
			C246.51,15.51,246.66,15.32,246.73,15.08z M253.06,16.95c0.07-0.25,0.05-0.48-0.08-0.71c-0.12-0.23-0.31-0.38-0.55-0.45
			c-0.25-0.07-0.48-0.05-0.71,0.08c-0.23,0.12-0.38,0.31-0.45,0.55c-0.07,0.25-0.05,0.48,0.08,0.71c0.12,0.23,0.31,0.38,0.55,0.45
			c0.25,0.07,0.48,0.05,0.71-0.08C252.83,17.38,252.99,17.2,253.06,16.95z"/>
		<path class="st3" d="M255.43,13.91l-1.62-0.54l1.23-3.68l1.62,0.54L255.43,13.91z"/>
		<path class="st3" d="M259.81,28.99l-1.58-0.58l-2.84-7.22l1.36-0.76l2.26,5.75l1.62-4.44c-0.06,0-0.22-0.05-0.5-0.15
			c-0.53-0.2-0.92-0.54-1.16-1.03c-0.24-0.49-0.26-1.01-0.06-1.56c0.2-0.55,0.56-0.95,1.08-1.2c0.52-0.25,1.04-0.28,1.56-0.09
			c0.6,0.22,1.03,0.6,1.29,1.13c0.25,0.53,0.27,1.11,0.04,1.73L259.81,28.99z M261.73,19.97c0.08-0.23,0.07-0.47-0.04-0.7
			c-0.11-0.23-0.29-0.39-0.53-0.48c-0.24-0.09-0.48-0.08-0.71,0.02c-0.23,0.1-0.39,0.27-0.48,0.51c-0.08,0.23-0.07,0.47,0.04,0.7
			c0.11,0.23,0.29,0.39,0.53,0.48c0.24,0.09,0.48,0.08,0.71-0.02C261.49,20.38,261.65,20.21,261.73,19.97z"/>
		<path class="st3" d="M272.15,31.53c-0.72,1.65-2.3,1.94-4.73,0.87c-2.45-1.07-3.32-2.43-2.6-4.08l1.84-4.21
			c-0.18-0.04-0.33-0.09-0.45-0.14c-0.54-0.24-0.91-0.62-1.11-1.16c-0.2-0.54-0.19-1.08,0.05-1.62c0.23-0.52,0.61-0.88,1.14-1.09
			c0.53-0.21,1.07-0.19,1.6,0.04c0.57,0.25,0.96,0.65,1.17,1.2c0.21,0.55,0.19,1.12-0.07,1.71l-2.61,5.95
			c-0.15,0.33-0.04,0.7,0.33,1.1c0.37,0.4,0.8,0.71,1.3,0.93c0.49,0.21,1,0.32,1.54,0.32c0.54,0,0.89-0.17,1.03-0.51l5.17-11.82
			l1.56,0.68L272.15,31.53z M267.9,22.44c0.1-0.23,0.11-0.47,0.01-0.71c-0.09-0.24-0.26-0.41-0.49-0.52
			c-0.24-0.1-0.47-0.11-0.71-0.01c-0.24,0.09-0.41,0.26-0.52,0.49c-0.1,0.24-0.11,0.47-0.01,0.71c0.09,0.24,0.26,0.41,0.49,0.52
			c0.24,0.1,0.47,0.11,0.71,0.01C267.63,22.84,267.8,22.68,267.9,22.44z"/>
		<path class="st3" d="M279.95,36.22c-0.27,0.52-0.68,0.86-1.22,1.02c-0.55,0.16-1.08,0.11-1.6-0.16c-0.52-0.27-0.87-0.68-1.05-1.23
			c-0.18-0.55-0.14-1.08,0.13-1.6c0.27-0.52,0.68-0.87,1.23-1.04c0.55-0.17,1.09-0.12,1.61,0.15c0.2,0.1,0.31,0.17,0.35,0.21
			l1.08-2.1c0.13-0.26-0.27-0.8-1.23-1.61c-0.95-0.81-1.83-1.52-2.64-2.12c0.49-0.88,1.1-1.48,1.82-1.8
			c0.72-0.32,1.5-0.26,2.33,0.16c0.34,0.18,0.77,0.5,1.29,0.96c0.51,0.46,0.9,0.76,1.16,0.89c0.28,0.14,0.52,0.04,0.74-0.3
			l1.03,0.94c-0.81,0.84-1.6,1.06-2.38,0.66c-0.29-0.15-0.68-0.44-1.15-0.86c-0.47-0.42-0.85-0.7-1.13-0.84
			c-0.72-0.37-1.26-0.31-1.64,0.18c1.12,0.91,2.03,1.73,2.74,2.46c0.7,0.73,0.87,1.46,0.5,2.18L279.95,36.22z M278.92,35.65
			c0.12-0.23,0.14-0.47,0.05-0.71c-0.08-0.25-0.24-0.43-0.47-0.55c-0.23-0.12-0.47-0.14-0.72-0.06c-0.25,0.08-0.43,0.23-0.55,0.46
			c-0.12,0.23-0.14,0.47-0.05,0.71c0.08,0.25,0.24,0.43,0.47,0.55c0.23,0.12,0.47,0.14,0.72,0.06
			C278.61,36.03,278.8,35.88,278.92,35.65z"/>
		<path class="st3" d="M290.15,38.83c-1.56,2.46-3.48,3.03-5.75,1.69c-0.95-0.56-1.56-1.18-1.84-1.87
			c-0.28-0.68-0.24-1.33,0.12-1.93c0.27-0.46,0.66-0.75,1.16-0.88c0.5-0.13,0.98-0.06,1.44,0.21c0.49,0.29,0.79,0.69,0.91,1.19
			c0.12,0.51,0.05,0.98-0.21,1.42c-0.25,0.43-0.56,0.67-0.91,0.74c1.51,0.8,2.76,0.35,3.77-1.35L290.15,38.83z M285.03,38.1
			c0.12-0.21,0.15-0.42,0.09-0.65c-0.06-0.23-0.19-0.4-0.4-0.52c-0.21-0.12-0.42-0.15-0.63-0.09c-0.22,0.06-0.39,0.2-0.51,0.4
			c-0.12,0.21-0.15,0.41-0.1,0.63c0.05,0.21,0.18,0.38,0.39,0.5c0.21,0.12,0.42,0.16,0.64,0.11
			C284.73,38.44,284.91,38.31,285.03,38.1z M293.32,33.45c-1.56,2.46-3.48,3.03-5.75,1.69c-0.95-0.56-1.56-1.18-1.84-1.87
			c-0.28-0.69-0.24-1.33,0.11-1.93c0.27-0.46,0.66-0.75,1.16-0.88c0.5-0.13,0.98-0.06,1.44,0.21c0.49,0.29,0.79,0.69,0.91,1.19
			c0.12,0.51,0.04,0.98-0.22,1.42c-0.25,0.43-0.56,0.67-0.91,0.74c1.51,0.8,2.76,0.35,3.77-1.35L293.32,33.45z M288.2,32.73
			c0.12-0.21,0.15-0.42,0.09-0.65c-0.06-0.23-0.19-0.4-0.4-0.52c-0.21-0.12-0.42-0.15-0.63-0.09c-0.22,0.06-0.39,0.2-0.51,0.4
			c-0.12,0.21-0.15,0.42-0.1,0.63c0.05,0.21,0.18,0.38,0.39,0.5c0.21,0.12,0.42,0.16,0.64,0.11
			C287.9,33.06,288.08,32.93,288.2,32.73z"/>
		<path class="st3" d="M294.49,45c-0.32,0.49-0.77,0.79-1.33,0.9c-0.57,0.11-1.09,0.01-1.56-0.3c-0.52-0.34-0.84-0.8-0.96-1.39
			c-0.12-0.58-0.01-1.14,0.34-1.68l4.91-7.5l1.43,0.93l-3.87,5.91c0.1,0.02,0.25,0.09,0.44,0.23c0.48,0.31,0.78,0.75,0.9,1.31
			C294.91,43.99,294.81,44.51,294.49,45z M293.53,44.37c0.14-0.21,0.18-0.45,0.13-0.7c-0.05-0.25-0.19-0.45-0.4-0.59
			c-0.21-0.14-0.45-0.18-0.7-0.13c-0.25,0.05-0.45,0.19-0.59,0.4c-0.14,0.22-0.19,0.45-0.13,0.7c0.05,0.25,0.19,0.45,0.4,0.59
			c0.21,0.14,0.45,0.18,0.7,0.13C293.19,44.72,293.39,44.59,293.53,44.37z"/>
		<path class="st3" d="M302.25,52.93l-1.37-1.01l5.27-7.15c0.34-0.46,0.4-0.77,0.17-0.93c-0.19-0.14-0.41-0.13-0.64,0.04l-8.17,5.56
			l-1.55-1.14l4.2-5.69c-0.17-0.08-0.31-0.16-0.41-0.23c-0.47-0.35-0.75-0.81-0.83-1.38c-0.08-0.57,0.05-1.09,0.4-1.57
			c0.34-0.46,0.79-0.73,1.35-0.81c0.56-0.08,1.08,0.05,1.55,0.4c0.5,0.37,0.79,0.85,0.88,1.43c0.08,0.58-0.07,1.13-0.45,1.65
			l-2.43,3.3c-0.37,0.5-1.04,1.22-2,2.15c0.64-0.53,1.38-1.1,2.22-1.71l4.15-3.02c0.94-0.69,1.82-0.73,2.64-0.1
			c1.09,0.83,1.19,1.87,0.27,3.11L302.25,52.93z M301.75,41.25c0.15-0.21,0.21-0.44,0.17-0.69c-0.04-0.26-0.16-0.46-0.37-0.61
			c-0.21-0.15-0.44-0.21-0.69-0.17c-0.26,0.04-0.46,0.16-0.61,0.37c-0.15,0.21-0.21,0.44-0.17,0.69c0.04,0.26,0.16,0.46,0.37,0.61
			c0.21,0.15,0.44,0.21,0.69,0.17C301.39,41.57,301.6,41.45,301.75,41.25z"/>
		<path class="st3" d="M310.76,60.12l-1.29-1.11l4.88-5.68c0.43-0.5,0.57-1.1,0.43-1.8c-0.15-0.64-0.49-1.18-1.02-1.64
			c-0.63-0.54-1.31-0.76-2.04-0.66c-0.73,0.09-1.34,0.42-1.82,0.98c-0.13,0.15-0.32,0.43-0.56,0.84c-0.24,0.41-0.48,0.74-0.7,1.01
			l-0.47,0.54c0.05-0.06,0.18-0.18,0.41-0.37c0.23-0.19,0.45-0.38,0.67-0.55c0.64-0.46,1.27-0.78,1.9-0.94
			c0.79-0.16,1.43-0.04,1.9,0.36c0.38,0.32,0.59,0.74,0.64,1.24c0.05,0.5-0.08,0.94-0.41,1.32c-0.31,0.36-0.72,0.56-1.23,0.59
			c-0.51,0.03-0.95-0.11-1.33-0.44c-0.35-0.3-0.55-0.69-0.62-1.18c-1.5,0.91-2.85,2.06-4.05,3.45l-1.29-1.11l1.15-1.33
			c0.56-0.65,1.06-1.46,1.49-2.43c0.43-0.97,0.84-1.68,1.22-2.12c0.83-0.96,1.84-1.44,3.05-1.44c1.14-0.01,2.19,0.4,3.15,1.22
			c0.54,0.47,0.97,1.03,1.3,1.7c0.52,0.04,0.97-0.16,1.34-0.59l1.46,1.25c-0.82,0.62-1.63,0.91-2.41,0.87c0,0.9-0.29,1.69-0.89,2.39
			L310.76,60.12z M312.5,52.98c0.15-0.18,0.22-0.39,0.21-0.62c-0.02-0.23-0.12-0.43-0.3-0.58c-0.18-0.16-0.38-0.22-0.61-0.2
			c-0.23,0.02-0.42,0.13-0.57,0.31c-0.16,0.18-0.23,0.38-0.21,0.6c0.02,0.22,0.12,0.41,0.3,0.56c0.18,0.16,0.38,0.23,0.61,0.22
			C312.15,53.26,312.34,53.17,312.5,52.98z"/>
		<path class="st3" d="M318.05,64.54c-0.41,0.42-0.9,0.63-1.48,0.64c-0.58,0-1.07-0.19-1.48-0.59c-0.45-0.43-0.68-0.95-0.69-1.54
			c-0.01-0.6,0.21-1.12,0.66-1.59l9.45-9.76l-2.87,0.59l-0.56-1c1.15-1.29,2.08-2.62,2.79-3.99l1.07,1.03
			c-0.85,1.19-1.52,2.06-2.02,2.6l3.53-0.83c0.23,0.29,0.34,0.65,0.35,1.06c0.01,0.41-0.13,0.77-0.41,1.06l-8.78,9.07
			c0.09,0.04,0.22,0.14,0.39,0.31c0.41,0.4,0.62,0.88,0.64,1.46C318.66,63.62,318.46,64.12,318.05,64.54z M317.22,63.74
			c0.18-0.18,0.26-0.41,0.26-0.67c0-0.26-0.1-0.48-0.28-0.66c-0.18-0.18-0.41-0.27-0.67-0.26c-0.26,0-0.48,0.1-0.66,0.28
			s-0.27,0.41-0.26,0.67c0,0.26,0.1,0.48,0.28,0.66c0.18,0.18,0.41,0.27,0.67,0.26C316.82,64.02,317.04,63.92,317.22,63.74z"/>
		<path class="st3" d="M324.1,73.83l-1.15-1.26l6.57-5.97c0.42-0.38,0.54-0.68,0.35-0.88c-0.16-0.18-0.37-0.21-0.64-0.09l-9.1,3.85
			l-1.29-1.42l5.23-4.75c-0.15-0.11-0.27-0.21-0.35-0.31c-0.39-0.43-0.58-0.94-0.54-1.52c0.03-0.58,0.27-1.06,0.7-1.46
			c0.42-0.38,0.92-0.56,1.49-0.53c0.57,0.03,1.05,0.26,1.45,0.69c0.42,0.46,0.61,0.99,0.58,1.58c-0.04,0.59-0.29,1.1-0.76,1.53
			l-3.03,2.76c-0.46,0.42-1.25,0.99-2.38,1.72c0.73-0.39,1.57-0.81,2.51-1.24l4.66-2.15c1.06-0.49,1.93-0.36,2.61,0.42
			c0.91,1.03,0.8,2.06-0.34,3.1L324.1,73.83z M325.9,62.28c0.19-0.17,0.29-0.39,0.3-0.65c0.01-0.26-0.07-0.48-0.24-0.67
			c-0.17-0.19-0.39-0.29-0.65-0.3c-0.26-0.01-0.48,0.07-0.67,0.24c-0.19,0.17-0.29,0.39-0.3,0.65c-0.01,0.26,0.07,0.48,0.24,0.67
			c0.17,0.19,0.39,0.29,0.65,0.3C325.48,62.53,325.71,62.45,325.9,62.28z"/>
		<path class="st3" d="M332.88,80.49c-1.58,1.22-3.2,0.76-4.86-1.38c-1.65-2.13-1.69-3.81-0.11-5.03l1-0.78
			c0.7-0.54,1.41-0.63,2.16-0.27c-0.06-1,0.35-1.84,1.21-2.52c0.64-0.49,1.3-0.72,1.99-0.69c0.69,0.03,1.27,0.36,1.76,0.99
			c0.34,0.43,0.49,0.91,0.46,1.42c-0.03,0.51-0.27,0.94-0.7,1.27c-0.39,0.3-0.84,0.43-1.34,0.38c-0.51-0.05-0.93-0.31-1.29-0.76
			c-0.18-0.23-0.3-0.47-0.37-0.7c-0.46,0.54-0.53,1.02-0.22,1.42l1.2,1.54l-1.06,0.83l-1.2-1.54c-0.18-0.23-0.43-0.34-0.74-0.33
			c-0.31,0.01-0.6,0.12-0.86,0.32l-0.99,0.77c-0.78,0.6-0.68,1.52,0.28,2.76c0.97,1.25,1.85,1.58,2.63,0.97l6.5-5.04l1.04,1.35
			L332.88,80.49z M335.14,72.72c0.2-0.16,0.32-0.35,0.35-0.59c0.03-0.23-0.04-0.45-0.2-0.66c-0.16-0.21-0.36-0.32-0.59-0.36
			c-0.23-0.03-0.45,0.03-0.65,0.19c-0.2,0.16-0.32,0.35-0.35,0.59c-0.03,0.23,0.04,0.45,0.2,0.66c0.16,0.21,0.36,0.32,0.59,0.36
			C334.72,72.94,334.94,72.88,335.14,72.72z"/>
	</g>
	<g>
		<path class="st3" d="M177.11,356.44l0.16-2.47l3.4,0.22l-0.91,14.37l-2-0.13l0.75-11.91L177.11,356.44z"/>
		<path class="st3" d="M187.59,364.1c-0.52-0.02-0.98-0.16-1.39-0.43c-0.41-0.27-0.75-0.61-1.04-1.04c-0.29-0.43-0.5-0.93-0.65-1.5
			c-0.15-0.57-0.21-1.18-0.19-1.83c0.03-0.71,0.14-1.37,0.35-1.98c0.21-0.61,0.49-1.15,0.85-1.61c0.36-0.46,0.78-0.82,1.26-1.07
			c0.48-0.25,1-0.37,1.57-0.35c0.53,0.02,1.04,0.17,1.52,0.44c0.48,0.28,0.88,0.66,1.21,1.14c0.36,0.53,0.62,1.11,0.75,1.73
			c0.14,0.62,0.19,1.28,0.17,1.97c-0.01,0.39-0.05,0.74-0.11,1.05s-0.14,0.61-0.25,0.9c-0.1,0.29-0.22,0.58-0.36,0.87
			c-0.14,0.29-0.28,0.58-0.44,0.88l-3.14,5.66l-2.35-0.08l2.61-4.74L187.59,364.1z M186.36,359.15c-0.01,0.35,0.02,0.67,0.09,0.98
			c0.07,0.3,0.18,0.58,0.34,0.82c0.15,0.25,0.34,0.44,0.56,0.57c0.22,0.14,0.47,0.21,0.76,0.22c0.27,0.01,0.51-0.05,0.74-0.19
			c0.22-0.13,0.42-0.31,0.59-0.53c0.17-0.22,0.31-0.48,0.42-0.78c0.1-0.3,0.16-0.61,0.17-0.94c0.01-0.34-0.03-0.66-0.12-0.96
			c-0.09-0.3-0.21-0.56-0.37-0.78c-0.16-0.22-0.35-0.4-0.58-0.54s-0.48-0.21-0.74-0.22c-0.25-0.01-0.49,0.05-0.7,0.17
			c-0.21,0.12-0.4,0.29-0.57,0.51c-0.17,0.22-0.3,0.48-0.4,0.77C186.43,358.55,186.37,358.85,186.36,359.15z"/>
		<path class="st3" d="M194.39,357.19l0.01-2.47l6.52,0.02l-0.01,2.47l-4.05,11.92l-2.2-0.01l4.17-11.92L194.39,357.19z"/>
		<path class="st3" d="M204.99,357.11l-0.11-2.47l3.41-0.15l0.64,14.39l-2.01,0.09l-0.53-11.92L204.99,357.11z"/>
	</g>
	<g>
		<path class="st3" d="M182.69,34.83l0.12,1.34l-7.88,0.73c-0.04-0.33-0.01-0.66,0.08-0.98c0.15-0.53,0.43-1.06,0.82-1.6
			c0.4-0.54,0.98-1.17,1.76-1.9c1.2-1.13,2-2.01,2.41-2.65c0.4-0.63,0.58-1.21,0.53-1.74c-0.05-0.55-0.3-1-0.75-1.34
			c-0.45-0.34-1.01-0.48-1.68-0.42c-0.71,0.07-1.25,0.32-1.64,0.76c-0.39,0.44-0.55,1.02-0.49,1.73l-1.52-0.01
			c0-1.08,0.32-1.93,0.94-2.55c0.62-0.62,1.5-0.99,2.63-1.09c1.14-0.11,2.08,0.11,2.8,0.66c0.72,0.54,1.13,1.26,1.21,2.15
			c0.04,0.45-0.01,0.91-0.17,1.37c-0.15,0.46-0.44,0.95-0.84,1.48c-0.41,0.53-1.1,1.26-2.07,2.21c-0.81,0.78-1.33,1.31-1.56,1.59
			c-0.23,0.27-0.41,0.54-0.55,0.81L182.69,34.83z"/>
		<path class="st3" d="M184.54,33.05l1.54-0.2c0.15,0.71,0.44,1.24,0.87,1.58c0.43,0.34,0.94,0.5,1.53,0.47
			c0.71-0.03,1.29-0.31,1.76-0.84c0.47-0.53,0.68-1.22,0.64-2.05c-0.04-0.8-0.3-1.42-0.79-1.86c-0.49-0.44-1.12-0.64-1.88-0.61
			c-0.47,0.02-0.9,0.14-1.27,0.37c-0.37,0.22-0.66,0.5-0.86,0.84l-1.39-0.11l0.89-5.91l5.95-0.27l0.06,1.34l-4.77,0.22l-0.5,3.09
			c0.7-0.51,1.44-0.78,2.23-0.82c1.04-0.05,1.94,0.26,2.69,0.91c0.75,0.66,1.15,1.53,1.2,2.61c0.05,1.03-0.23,1.94-0.82,2.72
			c-0.73,0.96-1.75,1.47-3.08,1.53c-1.09,0.05-1.99-0.2-2.7-0.75C185.11,34.75,184.68,34,184.54,33.05z"/>
		<path class="st3" d="M199.77,35.7l-1.47-0.02l0.12-8.92c-0.36,0.32-0.83,0.63-1.41,0.95s-1.1,0.55-1.56,0.7l0.02-1.35
			c0.83-0.36,1.55-0.79,2.18-1.31c0.62-0.52,1.07-1.02,1.33-1.51l0.95,0.01L199.77,35.7z"/>
		<path class="st3" d="M208.37,36.32l0.31-2.71l-5.16-0.59l0.15-1.28l6.27-6.72l1.19,0.14l-0.84,7.34l1.61,0.18l-0.14,1.28
			l-1.61-0.18l-0.31,2.71L208.37,36.32z M208.83,32.33l0.58-5.11l-4.31,4.68L208.83,32.33z"/>
	</g>
</g>
<g id="Layer_2">
</g>
</svg>
