<?xml version="1.0" encoding="utf-8"?>
<!-- Generator: Adobe Illustrator 25.4.1, SVG Export Plug-In . SVG Version: 6.00 Build 0)  -->
<svg version="1.1" id="Layer_1" xmlns="http://www.w3.org/2000/svg" xmlns:xlink="http://www.w3.org/1999/xlink" x="0px" y="0px"
	 viewBox="0 0 155 156" style="enable-background:new 0 0 155 156;" xml:space="preserve">
<style type="text/css">
	.st0{fill:#FFFFFF;}
</style>
<path class="st0" d="M59.29,109.01c-6.85-27.62,9.99-55.55,37.6-62.4c11.52-2.86,23.09-1.58,33.17,2.87
	c-4.24-16.04-14.47-30.52-29.8-39.76C68.96-9.14,28.3,0.94,9.44,32.24C-7.17,59.8-1.33,94.62,21.68,115.42l-0.48,25.65l22.48-12.43
	c9.27,3.35,18.98,4.5,28.44,3.63C66.08,125.98,61.54,118.08,59.29,109.01z"/>
<g>
	<path class="st0" d="M153.8,86.37c6.09,24.58-8.89,49.44-33.47,55.54c-24.58,6.1-49.44-8.89-55.54-33.47
		C58.7,83.86,73.68,58.99,98.26,52.9C122.84,46.8,147.7,61.79,153.8,86.37z"/>
	<polygon class="st0" points="123.88,156 129.58,136.23 109.61,141.18 123.88,156 129.58,136.23 109.61,141.18 	"/>
</g>
</svg>
