<?xml version="1.0" encoding="utf-8"?>
<!-- Generator: Adobe Illustrator 25.4.1, SVG Export Plug-In . SVG Version: 6.00 Build 0)  -->
<svg version="1.1" id="Layer_1" xmlns="http://www.w3.org/2000/svg" xmlns:xlink="http://www.w3.org/1999/xlink" x="0px" y="0px"
	 viewBox="0 0 233 243" style="enable-background:new 0 0 233 243;" xml:space="preserve">
<style type="text/css">
	.st0{fill:none;}
	.st1{fill:#FF6600;}
	.st2{fill:#FFFAF7;}
	.st3{fill:#1D2A38;}
</style>
<g>
	<polygon class="st0" points="151.16,212.87 154.54,212.87 152.83,208.18 	"/>
	<path class="st0" d="M214.56,235.23c0.25-0.26,0.37-0.58,0.37-0.97c-0.01-0.46-0.16-0.79-0.44-1c-0.23-0.18-0.55-0.27-0.98-0.27
		h-2.09v2.68h2.02C213.93,235.66,214.31,235.51,214.56,235.23z"/>
	<path class="st0" d="M47.03,206.23c-3.46,0-6.26,2.8-6.26,6.24c0,3.46,2.8,6.26,6.26,6.26c3.43,0,6.24-2.8,6.24-6.26
		C53.27,209.03,50.47,206.23,47.03,206.23z"/>
	<path class="st0" d="M130.56,234.44c-0.06-0.3-0.18-0.54-0.36-0.73c-0.13-0.18-0.31-0.33-0.53-0.45c-0.23-0.12-0.51-0.18-0.83-0.19
		c-0.31,0.01-0.59,0.07-0.81,0.19c-0.23,0.12-0.42,0.27-0.56,0.45c-0.17,0.19-0.29,0.43-0.34,0.73c-0.06,0.31-0.1,0.91-0.1,1.77
		c0,0.87,0.03,1.45,0.1,1.76c0.06,0.31,0.17,0.56,0.34,0.74c0.14,0.18,0.33,0.33,0.56,0.44c0.23,0.13,0.5,0.2,0.81,0.2
		c0.32,0,0.6-0.07,0.83-0.2c0.22-0.11,0.4-0.26,0.53-0.44c0.17-0.19,0.29-0.44,0.36-0.74c0.06-0.31,0.09-0.89,0.09-1.76
		C130.65,235.34,130.62,234.75,130.56,234.44z"/>
	<path class="st0" d="M123.3,208.31c0-1.15-0.93-2.09-2.09-2.09h-1.68v4.15h1.68C122.36,210.37,123.3,209.44,123.3,208.31z"/>
	<polygon class="st0" points="18.44,233.61 17.16,237.46 19.74,237.46 18.46,233.61 	"/>
	<path class="st1" d="M12.41,222.88c2.77,0,5.3-1.1,7.17-2.88l-2.94-2.94c-1.1,1.02-2.61,1.65-4.23,1.65
		c-3.46,0-6.26-2.78-6.26-6.24c0-3.43,2.8-6.24,6.26-6.24c1.62,0,3.13,0.63,4.23,1.68l2.94-2.97c-1.87-1.79-4.4-2.89-7.17-2.89
		C6.67,202.05,2,206.72,2,212.46C2,218.2,6.67,222.88,12.41,222.88z"/>
	<path class="st1" d="M57.44,212.46c0-5.74-4.67-10.41-10.41-10.41s-10.41,4.67-10.41,10.41c0,5.74,4.67,10.41,10.41,10.41
		S57.44,218.2,57.44,212.46z M47.03,218.73c-3.46,0-6.26-2.8-6.26-6.26c0-3.43,2.8-6.24,6.26-6.24c3.43,0,6.24,2.8,6.24,6.24
		C53.27,215.92,50.47,218.73,47.03,218.73z"/>
	<polygon class="st1" points="96.98,222.88 96.98,202.05 92.5,202.05 86.43,217.27 80.33,202.05 75.85,202.05 75.85,222.88 
		80,222.88 80,212.46 84.18,222.88 88.65,222.88 92.83,212.46 92.83,222.88 	"/>
	<path class="st1" d="M119.53,214.55h1.7c3.43,0,6.21-2.8,6.21-6.24c0-3.46-2.77-6.26-6.24-6.26h-5.83v20.83h4.15V214.55z
		 M119.53,206.23h1.68c1.15,0,2.09,0.93,2.09,2.09c0,1.13-0.93,2.06-2.09,2.06h-1.68V206.23z"/>
	<path class="st1" d="M155.06,202.05h-4.42l-7.53,20.83h4.42l2.12-5.82h6.4l2.12,5.82h4.42L155.06,202.05z M151.16,212.87l1.68-4.7
		l1.7,4.7H151.16z"/>
	<polygon class="st1" points="197.78,222.88 197.78,202.05 193.63,202.05 193.63,215.95 185.31,202.05 180.44,202.05 180.44,222.88 
		184.59,222.88 184.59,209 192.95,222.88 	"/>
	<polygon class="st1" points="220.28,202.05 215.64,202.05 221.08,212.96 221.08,222.88 225.23,222.88 225.23,212.96 230.67,202.05 
		226.02,202.05 223.17,207.82 	"/>
	<polygon class="st1" points="4.38,240.62 5.72,240.62 5.72,232.99 8.14,232.99 8.14,231.8 1.96,231.8 1.96,232.99 4.38,232.99 	"/>
	<path class="st1" d="M17.89,231.8l-3.21,8.82h1.42l0.68-1.97h3.35l0.68,1.97h1.41l-3.21-8.82H17.89z M17.16,237.46l1.28-3.86h0.02
		l1.28,3.86H17.16z"/>
	<path class="st1" d="M31.85,233.7c0.14-0.18,0.33-0.33,0.56-0.45c0.23-0.12,0.5-0.18,0.81-0.19c0.43,0.01,0.79,0.13,1.09,0.37
		c0.29,0.25,0.48,0.55,0.59,0.91h1.42c-0.14-0.74-0.48-1.36-1.02-1.86c-0.54-0.5-1.23-0.75-2.08-0.76c-0.69,0.01-1.27,0.17-1.74,0.5
		c-0.47,0.32-0.82,0.68-1.03,1.09c-0.13,0.21-0.23,0.49-0.3,0.84c-0.06,0.35-0.09,1.03-0.09,2.06c0,1.01,0.03,1.69,0.09,2.05
		c0.03,0.19,0.07,0.35,0.12,0.47c0.05,0.12,0.11,0.25,0.18,0.38c0.21,0.41,0.56,0.77,1.03,1.08c0.46,0.32,1.04,0.49,1.74,0.51
		c0.9-0.02,1.65-0.32,2.24-0.91c0.59-0.6,0.89-1.34,0.91-2.22v-1.8h-3.13v1.27h1.8v0.46c-0.01,0.55-0.18,1-0.52,1.34
		c-0.34,0.35-0.77,0.53-1.29,0.53c-0.32,0-0.58-0.07-0.81-0.2c-0.23-0.11-0.42-0.26-0.56-0.44c-0.17-0.19-0.29-0.44-0.34-0.74
		c-0.06-0.31-0.1-0.89-0.1-1.76c0-0.87,0.03-1.46,0.1-1.77C31.57,234.14,31.68,233.89,31.85,233.7z"/>
	<polygon class="st1" points="45.37,231.8 45.37,240.62 51,240.62 51,239.36 46.71,239.36 46.71,231.8 	"/>
	<rect x="59.7" y="231.8" class="st1" width="1.34" height="8.82"/>
	<polygon class="st1" points="75.61,238.07 75.59,238.07 71.59,231.8 70.33,231.8 70.33,240.62 71.67,240.62 71.67,234.35 
		71.69,234.35 75.68,240.62 76.95,240.62 76.95,231.8 75.61,231.8 	"/>
	<polygon class="st1" points="91.88,233.06 91.88,231.8 86.25,231.8 86.25,240.62 91.88,240.62 91.88,239.36 87.59,239.36 
		87.59,236.77 91.25,236.77 91.25,235.58 87.59,235.58 87.59,233.06 	"/>
	<path class="st1" d="M112.1,232.22c-0.47,0.32-0.81,0.68-1.03,1.09c-0.13,0.21-0.23,0.49-0.3,0.84c-0.06,0.35-0.09,1.03-0.09,2.06
		c0,1.01,0.03,1.69,0.09,2.05c0.03,0.19,0.07,0.35,0.12,0.47c0.05,0.12,0.11,0.25,0.18,0.38c0.21,0.41,0.56,0.77,1.03,1.08
		c0.46,0.32,1.04,0.49,1.74,0.51c0.9-0.02,1.65-0.32,2.24-0.91c0.59-0.6,0.89-1.34,0.91-2.22v-1.8h-3.13v1.27h1.8v0.46
		c-0.01,0.55-0.18,1-0.52,1.34c-0.34,0.35-0.77,0.53-1.29,0.53c-0.31,0-0.58-0.07-0.81-0.2c-0.23-0.11-0.42-0.26-0.56-0.44
		c-0.17-0.19-0.29-0.44-0.34-0.74c-0.06-0.31-0.1-0.89-0.1-1.76c0-0.87,0.03-1.46,0.1-1.77c0.06-0.3,0.17-0.54,0.34-0.73
		c0.14-0.18,0.33-0.33,0.56-0.45c0.23-0.12,0.5-0.18,0.81-0.19c0.43,0.01,0.79,0.13,1.09,0.37c0.29,0.25,0.48,0.55,0.59,0.91h1.42
		c-0.14-0.74-0.48-1.36-1.02-1.86c-0.54-0.5-1.23-0.75-2.08-0.76C113.15,231.73,112.57,231.9,112.1,232.22z"/>
	<path class="st1" d="M131.6,239.11c0.15-0.21,0.25-0.5,0.31-0.85c0.05-0.35,0.08-1.04,0.08-2.05c0-1.02-0.03-1.71-0.08-2.06
		c-0.06-0.35-0.16-0.63-0.31-0.84c-0.21-0.41-0.54-0.77-1-1.09c-0.47-0.32-1.05-0.49-1.76-0.5c-0.69,0.01-1.27,0.17-1.74,0.5
		c-0.47,0.32-0.81,0.68-1.03,1.09c-0.13,0.21-0.23,0.49-0.3,0.84c-0.06,0.35-0.09,1.03-0.09,2.06c0,1.01,0.03,1.69,0.09,2.05
		c0.03,0.19,0.07,0.35,0.12,0.47c0.05,0.12,0.11,0.25,0.18,0.38c0.21,0.41,0.56,0.77,1.03,1.08c0.46,0.32,1.04,0.49,1.74,0.51
		c0.7-0.02,1.29-0.19,1.76-0.51C131.06,239.87,131.39,239.52,131.6,239.11z M130.2,238.71c-0.13,0.18-0.31,0.33-0.53,0.44
		c-0.23,0.13-0.51,0.2-0.83,0.2c-0.31,0-0.59-0.07-0.81-0.2c-0.23-0.11-0.42-0.26-0.56-0.44c-0.17-0.19-0.29-0.44-0.34-0.74
		c-0.06-0.31-0.1-0.89-0.1-1.76c0-0.87,0.03-1.46,0.1-1.77c0.06-0.3,0.17-0.54,0.34-0.73c0.14-0.18,0.33-0.33,0.56-0.45
		c0.23-0.12,0.5-0.18,0.81-0.19c0.32,0.01,0.6,0.07,0.83,0.19c0.22,0.12,0.4,0.27,0.53,0.45c0.17,0.19,0.29,0.43,0.36,0.73
		c0.06,0.31,0.09,0.91,0.09,1.77c0,0.87-0.03,1.45-0.09,1.76C130.49,238.28,130.37,238.52,130.2,238.71z"/>
	<polygon class="st1" points="146.62,233.06 146.62,231.8 140.98,231.8 140.98,240.62 146.62,240.62 146.62,239.36 142.32,239.36 
		142.32,236.77 145.99,236.77 145.99,235.58 142.32,235.58 142.32,233.06 	"/>
	<path class="st1" d="M157.93,239.36c-0.97-0.01-1.8-0.3-2.51-0.88l-0.88,1c0.94,0.81,2.06,1.21,3.37,1.21
		c2.02-0.02,3.05-0.88,3.1-2.57c0-0.63-0.2-1.17-0.59-1.65c-0.4-0.48-1.01-0.78-1.83-0.89c-0.42-0.05-0.75-0.1-0.99-0.14
		c-0.44-0.08-0.75-0.23-0.95-0.44c-0.2-0.21-0.3-0.44-0.3-0.69c0.01-0.42,0.16-0.74,0.44-0.96c0.27-0.21,0.62-0.31,1.03-0.31
		c0.79,0.02,1.52,0.24,2.18,0.68l0.74-1.1c-0.81-0.59-1.77-0.89-2.86-0.91c-0.91,0.01-1.62,0.25-2.11,0.71
		c-0.51,0.47-0.77,1.09-0.77,1.86c0,0.64,0.2,1.19,0.61,1.63c0.4,0.44,0.97,0.72,1.73,0.84c0.42,0.06,0.81,0.12,1.17,0.16
		c0.77,0.13,1.16,0.53,1.15,1.19C159.66,238.93,159.07,239.34,157.93,239.36z"/>
	<polygon class="st1" points="186.44,240.62 186.44,231.8 185.1,231.8 185.1,235.58 181.61,235.58 181.61,231.8 180.27,231.8 
		180.27,240.62 181.61,240.62 181.61,236.77 185.1,236.77 185.1,240.62 	"/>
	<polygon class="st1" points="201.37,233.06 201.37,231.8 195.74,231.8 195.74,240.62 201.37,240.62 201.37,239.36 197.08,239.36 
		197.08,236.77 200.75,236.77 200.75,235.58 197.08,235.58 197.08,233.06 	"/>
	<path class="st1" d="M211.41,236.85h1.71l1.82,3.77h1.59l-2.05-3.92c1.12-0.43,1.69-1.25,1.71-2.45c-0.02-0.82-0.32-1.44-0.88-1.88
		c-0.46-0.39-1.06-0.58-1.8-0.58h-3.44v8.82h1.34V236.85z M211.41,232.99h2.09c0.43,0,0.75,0.09,0.98,0.27
		c0.29,0.21,0.43,0.54,0.44,1c0,0.38-0.12,0.71-0.37,0.97c-0.25,0.28-0.63,0.43-1.13,0.44h-2.02V232.99z"/>
	<polygon class="st1" points="230.7,233.06 230.7,231.8 225.07,231.8 225.07,240.62 230.7,240.62 230.7,239.36 226.41,239.36 
		226.41,236.77 230.07,236.77 230.07,235.58 226.41,235.58 226.41,233.06 	"/>
	<path class="st2" d="M170.66,20.78l0.02,0.02L170.66,20.78c-0.14-0.12-0.29-0.24-0.44-0.35l0,0l0,0
		C170.37,20.54,170.52,20.66,170.66,20.78z"/>
	<path class="st2" d="M168.73,19.25l0.01,0.01l0.01,0.01c0.49,0.37,0.98,0.75,1.44,1.13l0.01,0l-0.01-0.01
		c-0.47-0.38-0.95-0.75-1.44-1.13l-0.01-0.01L168.73,19.25c-0.13-0.1-0.26-0.2-0.39-0.3l-0.16-0.12l0.16,0.12
		C168.47,19.05,168.6,19.15,168.73,19.25z"/>
	<path class="st2" d="M168.01,18.71c-0.01-0.01-0.02-0.01-0.02-0.02L168.01,18.71l-0.03-0.02l0.01,0
		C168,18.7,168.01,18.7,168.01,18.71z"/>
	<polygon class="st2" points="167.95,18.67 167.93,18.65 167.66,18.45 167.93,18.65 	"/>
	<path class="st2" d="M166.86,17.86c0.07,0.05,0.14,0.1,0.21,0.15C167,17.96,166.93,17.91,166.86,17.86l-0.15-0.11v0l0,0
		L166.86,17.86z"/>
	<path class="st2" d="M166.69,17.74L166.69,17.74c-0.16-0.11-0.3-0.22-0.45-0.32c0.15,0.1,0.29,0.21,0.44,0.31L166.69,17.74z"/>
	<path class="st2" d="M164.97,16.53l-0.01-0.01c-0.16-0.11-0.32-0.22-0.49-0.33c0.16,0.11,0.33,0.22,0.49,0.33L164.97,16.53z"/>
	<path class="st2" d="M130.53,2.69L130.53,2.69L130.53,2.69c-0.35-0.06-0.69-0.12-1.04-0.17c-0.16-0.02-0.32-0.05-0.48-0.07
		c0.16,0.02,0.32,0.05,0.48,0.07C129.84,2.58,130.19,2.63,130.53,2.69z"/>
	<path class="st2" d="M163.6,15.62c-0.01-0.01-0.03-0.02-0.04-0.03l0,0l0,0C163.57,15.6,163.59,15.61,163.6,15.62z"/>
	<path class="st2" d="M152.89,9.63l0.01,0L152.89,9.63c-0.87-0.41-1.68-0.77-2.45-1.1l-0.02-0.01l0.02,0.01
		C151.21,8.86,152.01,9.22,152.89,9.63z"/>
	<path class="st2" d="M162.84,15.12c0.18,0.11,0.35,0.23,0.53,0.34C163.19,15.35,163.01,15.23,162.84,15.12l-0.03-0.02l0,0l0,0
		L162.84,15.12z"/>
	<path class="st2" d="M142.49,5.57c-0.21-0.07-0.42-0.13-0.63-0.2c-0.22-0.07-0.43-0.13-0.65-0.2c0.22,0.07,0.43,0.13,0.65,0.2
		C142.07,5.43,142.28,5.5,142.49,5.57z"/>
	<path class="st2" d="M139.23,4.6c-0.1-0.03-0.19-0.05-0.29-0.08l-0.06-0.02l0.06,0.02C139.04,4.55,139.13,4.58,139.23,4.6z"/>
	
		<rect x="139.43" y="4.65" transform="matrix(0.321 -0.9471 0.9471 0.321 90.2595 135.217)" class="st2" width="0.01" height="0.01"/>
	<path class="st2" d="M149.72,8.23l0.08,0.03c0.19,0.08,0.38,0.16,0.56,0.24l0.02,0.01l-0.02-0.01c-0.19-0.08-0.37-0.16-0.56-0.24
		L149.72,8.23l-0.05-0.03l-0.01,0l0.01,0.01L149.72,8.23z"/>
	<polygon class="st2" points="160.19,13.49 160.18,13.49 160.18,13.49 	"/>
	<path class="st2" d="M160.66,13.77l0.44,0.26c0.28,0.16,0.55,0.33,0.82,0.51l0.04,0.02l0,0l-0.01,0l-0.03-0.02
		c-0.27-0.17-0.55-0.34-0.82-0.51L160.66,13.77L160.66,13.77c-0.07-0.05-0.14-0.09-0.21-0.12
		C160.52,13.69,160.59,13.72,160.66,13.77L160.66,13.77z"/>
	<path class="st2" d="M171.33,21.33l0.07,0.06L171.33,21.33c-0.2-0.17-0.39-0.32-0.58-0.48l-0.03-0.02l0.03,0.03
		C170.94,21,171.13,21.16,171.33,21.33z"/>
	<path class="st2" d="M159.42,13.05c0.2,0.11,0.4,0.23,0.59,0.34C159.82,13.27,159.62,13.16,159.42,13.05l-0.15-0.09
		c-0.07-0.04-0.14-0.08-0.21-0.12c0.07,0.04,0.13,0.08,0.2,0.12L159.42,13.05z"/>
	<path class="st2" d="M153.03,9.7l0.74,0.35c0.28,0.13,0.56,0.26,0.84,0.41l0.03,0.01l0.01,0l-0.01-0.01l-0.03-0.01
		c-0.27-0.14-0.55-0.27-0.83-0.41L153.03,9.7L153.03,9.7c-0.02-0.02-0.05-0.03-0.07-0.04C152.99,9.68,153.01,9.69,153.03,9.7
		L153.03,9.7z"/>
	<path class="st2" d="M146.65,7c0.63,0.23,1.31,0.5,2.14,0.84c0.06,0.02,0.11,0.04,0.17,0.07c-0.06-0.02-0.11-0.05-0.17-0.07
		C147.96,7.5,147.28,7.24,146.65,7l-0.38-0.14l-0.05-0.02l0.05,0.02L146.65,7z"/>
	<polygon class="st2" points="30.84,76.02 30.83,76.06 30.83,76.09 30.83,76.06 	"/>
	<polygon class="st2" points="30.82,76.18 30.81,76.23 30.81,76.24 30.81,76.23 	"/>
	<path class="st2" d="M30.94,75.29c0.02-0.15,0.04-0.3,0.06-0.45l0.02-0.11l-0.02,0.11C30.98,74.99,30.96,75.14,30.94,75.29l0,0.01
		l0,0.01l0-0.01V75.29z"/>
	<path class="st2" d="M30.93,75.4c-0.01,0.09-0.02,0.18-0.04,0.26l-0.03,0.23l0.04-0.23C30.9,75.58,30.91,75.49,30.93,75.4z"/>
	<path class="st2" d="M30.57,78.21c0.01-0.1,0.02-0.2,0.03-0.29C30.59,78.01,30.58,78.11,30.57,78.21L30.57,78.21l0,0.02
		L30.57,78.21L30.57,78.21z"/>
	<path class="st2" d="M30.17,83.05c-0.01,0.17-0.02,0.34-0.03,0.51l0,0.02l0-0.02C30.15,83.39,30.16,83.22,30.17,83.05z"/>
	<path class="st2" d="M30.35,80.41c-0.01,0.1-0.02,0.2-0.03,0.29c0,0.05-0.01,0.1-0.01,0.15c0-0.05,0.01-0.1,0.01-0.15
		C30.34,80.61,30.34,80.51,30.35,80.41z"/>
	<path class="st2" d="M30.27,81.49c0-0.04,0.01-0.09,0.01-0.13C30.27,81.41,30.27,81.45,30.27,81.49c-0.03,0.32-0.05,0.65-0.07,1.04
		l0,0.01l0,0C30.22,82.15,30.24,81.81,30.27,81.49z"/>
	<path class="st2" d="M110.27,1.74c0.19-0.01,0.38-0.02,0.58-0.03C110.66,1.72,110.46,1.73,110.27,1.74z"/>
	<path class="st2" d="M103.15,2.53L103.15,2.53c0,0,0.01,0,0.01,0C103.16,2.53,103.15,2.53,103.15,2.53z"/>
	<path class="st2" d="M75.11,116.84c0.04,0.08,0.08,0.16,0.11,0.24C75.19,117,75.15,116.92,75.11,116.84z"/>
	<path class="st2" d="M119.58,1.59c1.95,0.07,3.9,0.21,5.83,0.41C123.48,1.8,121.53,1.67,119.58,1.59z"/>
	<path class="st2" d="M134.4,3.44c0.55,0.12,1.1,0.24,1.64,0.37C135.49,3.68,134.95,3.56,134.4,3.44z"/>
	<path class="st2" d="M154.74,10.53c1.25,0.62,2.5,1.28,3.73,1.97C157.24,11.81,155.99,11.15,154.74,10.53z"/>
	<path class="st2" d="M172.56,22.36c-0.17-0.14-0.33-0.28-0.5-0.43l-0.34-0.28l0.33,0.28C172.23,22.08,172.39,22.22,172.56,22.36z"
		/>
	<path class="st2" d="M88.09,39.18c7.35-7.93,16.39-14.08,26.56-18.02c3.08-1.19,6.23-2.17,9.43-2.92c-3.2,0.75-6.35,1.72-9.43,2.92
		C104.48,25.09,95.45,31.25,88.09,39.18z"/>
	<path class="st2" d="M103.45,149C103.46,149,103.46,149,103.45,149c-8.51-5.14-15.87-12.03-21.66-20.32c-2.1-3-3.95-6.14-5.54-9.38
		c1.6,3.24,3.44,6.38,5.54,9.39C87.58,136.97,94.94,143.85,103.45,149z"/>
	<path class="st2" d="M30.04,87.11L30.04,87.11c0,0.1,0,0.19,0,0.29c0,0.08,0,0.17,0,0.25c0-0.08,0-0.17,0-0.25V87.11z"/>
	<path class="st2" d="M48.56,132.1c-11.7-11.53-18.27-26.93-18.51-43.34l0-0.23v-0.27c0-0.08,0-0.17,0-0.25c0,0.08,0,0.16,0,0.25
		c0,0.09,0,0.18,0,0.28l0,0.23C30.29,105.17,36.86,120.57,48.56,132.1c11.71,11.55,27.21,17.91,43.66,17.91
		c2.62,0,5.21-0.17,7.77-0.49c-2.56,0.32-5.16,0.49-7.77,0.49C75.77,150.01,60.27,143.65,48.56,132.1z"/>
	<path class="st2" d="M174.48,24.07l0.03,0.03c0.15,0.14,0.3,0.28,0.46,0.42c-0.15-0.14-0.3-0.28-0.46-0.42L174.48,24.07l-0.2-0.18
		c-0.03-0.03-0.06-0.06-0.1-0.09c0.03,0.03,0.07,0.06,0.1,0.09L174.48,24.07z"/>
	<polygon class="st2" points="175.94,25.43 175.91,25.4 175.89,25.38 175.9,25.4 	"/>
	<path class="st2" d="M176.79,26.25c0.01,0,0.01,0.01,0.02,0.02c0,0,0,0,0.01,0C176.8,26.26,176.8,26.25,176.79,26.25
		c-0.1-0.1-0.2-0.2-0.3-0.3c-0.14-0.13-0.27-0.26-0.41-0.4c0.14,0.13,0.28,0.26,0.41,0.39C176.58,26.05,176.69,26.15,176.79,26.25z"
		/>
	<path class="st2" d="M175.5,25.01c-0.13-0.13-0.26-0.25-0.4-0.38l-0.02-0.02l0.01,0.02C175.24,24.76,175.36,24.88,175.5,25.01z"/>
	<path class="st2" d="M30.14,83.62l0,0.01c0,0.02,0,0.04,0,0.06c0-0.02,0-0.04,0-0.06V83.62z"/>
	
		<rect x="30.13" y="83.86" transform="matrix(0.0844 -0.9964 0.9964 0.0844 -55.9736 106.798)" class="st2" width="0.01" height="0"/>
	<path class="st2" d="M30.06,86.04v-0.12c0-0.06,0-0.11,0-0.16c0-0.34,0.01-0.67,0.03-1.02c0-0.08,0.01-0.16,0.01-0.25
		c0,0.08-0.01,0.16-0.01,0.24c-0.01,0.35-0.02,0.69-0.03,1.02c0,0.05,0,0.11,0,0.16l0,0.03v0.06L30.06,86.04
		c-0.01,0.28-0.01,0.55-0.02,0.83l0,0.16l0-0.16C30.05,86.6,30.05,86.32,30.06,86.04z"/>
	<path class="st1" d="M31.03,74.66l-0.01,0.08l-0.02,0.11c-0.02,0.15-0.05,0.3-0.06,0.45v0.01l0,0.01l0,0
		c0,0.03-0.01,0.06-0.01,0.09c-0.01,0.09-0.02,0.18-0.04,0.27l-0.04,0.23l-0.01,0.04l-0.01,0.07l0,0.01l0,0.04l-0.01,0.03l0,0.02
		l-0.01,0.07l-0.01,0.05l0,0.01l-0.01,0.04c-0.04,0.28-0.07,0.57-0.11,0.86c-0.03,0.25-0.06,0.51-0.09,0.77
		c-0.01,0.1-0.02,0.2-0.03,0.29v0.01l0,0.01l0,0.01c-0.04,0.31-0.07,0.63-0.1,0.94c-0.02,0.23-0.04,0.47-0.06,0.71v0.02l-0.02,0.23
		c-0.01,0.09-0.02,0.18-0.02,0.28c-0.01,0.1-0.02,0.2-0.02,0.29c-0.01,0.05-0.01,0.1-0.01,0.15c-0.01,0.08-0.01,0.15-0.02,0.23
		c-0.01,0.09-0.01,0.19-0.02,0.28c0,0.04-0.01,0.09-0.01,0.13c-0.03,0.32-0.05,0.65-0.07,1.04l0,0l0,0v0.01
		c-0.01,0.16-0.02,0.33-0.02,0.49c-0.01,0.17-0.02,0.34-0.03,0.51l0,0.02l0,0.02v0.02v0.01c0,0.02,0,0.04,0,0.06
		c0,0.04,0,0.08-0.01,0.12v0.05v0l0,0l0,0.06c-0.01,0.19-0.02,0.39-0.02,0.58c0,0.08-0.01,0.16-0.01,0.25
		c-0.01,0.35-0.02,0.68-0.03,1.02c0,0.05,0,0.11,0,0.16v0.12c-0.01,0.28-0.01,0.55-0.01,0.83l0,0.16l0,0.07v0.01v0.29
		c0,0.08,0,0.17,0,0.25c0,0.06,0,0.12,0,0.18c0,0.06,0,0.12,0,0.18c0,0.08,0,0.16,0,0.25v0.27l0,0.23
		c0.24,16.41,6.82,31.81,18.51,43.34c11.71,11.55,27.21,17.91,43.66,17.91c2.61,0,5.21-0.17,7.77-0.49
		c1.16-0.14,2.32-0.31,3.47-0.52c0,0,0,0,0,0c-8.51-5.14-15.87-12.03-21.66-20.32c-2.1-3-3.95-6.14-5.54-9.39
		c-0.36-0.73-0.7-1.47-1.04-2.21c-0.04-0.08-0.08-0.16-0.11-0.24c-4.04-9.07-6.13-18.9-6.13-29.01c0-14.71,4.43-28.83,12.82-40.85
		c1.93-2.76,4.03-5.36,6.3-7.8c7.35-7.93,16.39-14.09,26.56-18.02c3.08-1.19,6.23-2.17,9.43-2.92c5.33-1.25,10.81-1.88,16.36-1.88
		c12.99,0,25.47,3.45,36.36,9.91c0,0,0,0-0.01-0.01c-0.01-0.01-0.01-0.01-0.02-0.02c-0.1-0.1-0.2-0.2-0.31-0.3
		c-0.13-0.13-0.27-0.26-0.41-0.39c-0.04-0.04-0.08-0.08-0.13-0.12l0,0l-0.03-0.03l-0.01-0.01l-0.02-0.02
		c-0.12-0.11-0.25-0.23-0.38-0.35c-0.13-0.13-0.26-0.25-0.4-0.37l-0.01-0.02l-0.01-0.02l-0.03-0.03c-0.02-0.02-0.05-0.04-0.07-0.06
		c-0.15-0.14-0.3-0.28-0.46-0.42l-0.03-0.03l-0.2-0.18c-0.03-0.03-0.07-0.06-0.1-0.09c-0.22-0.2-0.44-0.4-0.66-0.59
		c-0.25-0.22-0.49-0.43-0.73-0.64c-0.08-0.07-0.16-0.13-0.24-0.2c-0.17-0.14-0.33-0.28-0.5-0.43l-0.33-0.28l-0.18-0.15l0-0.01
		l-0.13-0.11l-0.07-0.06c-0.2-0.17-0.39-0.33-0.58-0.48l-0.03-0.03l-0.01-0.01l-0.02-0.01l-0.02-0.02
		c-0.14-0.12-0.29-0.24-0.44-0.35l0,0l-0.01-0.01l-0.01,0l-0.01,0c-0.46-0.38-0.95-0.76-1.44-1.13l-0.01-0.01l-0.01-0.01
		c-0.13-0.1-0.26-0.2-0.39-0.3l-0.16-0.12l-0.1-0.07c-0.02-0.02-0.04-0.03-0.07-0.05c-0.01-0.01-0.01-0.01-0.02-0.02l-0.01,0
		l-0.02-0.01l-0.01-0.01l-0.02-0.02l-0.27-0.2l-0.1-0.07l-0.37-0.27c-0.04-0.03-0.08-0.06-0.12-0.08c-0.07-0.05-0.14-0.1-0.21-0.15
		l-0.15-0.11l0,0l-0.01-0.01l-0.01,0l-0.01,0c-0.15-0.11-0.29-0.21-0.44-0.31c-0.03-0.02-0.07-0.05-0.1-0.08l-0.04-0.03l-0.04-0.03
		c-0.36-0.25-0.72-0.5-1.08-0.75l-0.01,0l0,0l-0.01-0.01c-0.16-0.11-0.32-0.22-0.49-0.33c-0.04-0.03-0.08-0.05-0.12-0.08l0,0
		l-0.01-0.01c-0.24-0.16-0.48-0.32-0.73-0.48c-0.01-0.01-0.03-0.02-0.04-0.03l0,0l-0.02-0.01l-0.02-0.01
		c-0.05-0.03-0.1-0.07-0.16-0.1c-0.18-0.11-0.35-0.23-0.53-0.34l-0.03-0.02l0,0l-0.03-0.02c-0.26-0.17-0.52-0.33-0.79-0.5
		l-0.03-0.02l0,0l-0.04-0.02c-0.27-0.17-0.54-0.34-0.82-0.51l-0.44-0.26l0,0c-0.07-0.04-0.13-0.08-0.2-0.12
		c-0.08-0.05-0.17-0.1-0.25-0.15l-0.02-0.01l0,0l0,0l-0.01-0.01c-0.05-0.03-0.1-0.06-0.15-0.09c-0.2-0.12-0.4-0.23-0.59-0.34
		l-0.15-0.09c-0.07-0.04-0.14-0.08-0.2-0.12c-0.18-0.11-0.37-0.21-0.55-0.31c-0.02-0.01-0.04-0.02-0.05-0.03
		c-1.22-0.68-2.47-1.34-3.73-1.97c-0.03-0.01-0.06-0.03-0.08-0.04l-0.01-0.01l-0.01,0l-0.03-0.01c-0.27-0.14-0.55-0.28-0.84-0.41
		l-0.74-0.35l0,0c-0.02-0.01-0.04-0.02-0.06-0.03c-0.01-0.01-0.03-0.01-0.04-0.02l-0.02-0.01l-0.01,0l-0.01,0
		c-0.87-0.41-1.68-0.77-2.45-1.1l-0.02-0.01l-0.02-0.01l-0.02-0.01l-0.02-0.01c-0.19-0.08-0.37-0.16-0.56-0.24l-0.08-0.03
		l-0.06-0.02l-0.01-0.01l0,0l-0.33-0.14c-0.12-0.05-0.24-0.1-0.36-0.15c-0.06-0.02-0.11-0.05-0.17-0.07
		c-0.83-0.33-1.51-0.6-2.14-0.84l-0.38-0.14l-0.05-0.02l-0.39-0.15c-1.05-0.38-2.15-0.76-3.25-1.11l-0.01,0l-0.01,0
		c-0.02-0.01-0.04-0.01-0.05-0.02c-0.21-0.07-0.42-0.13-0.63-0.2c-0.22-0.07-0.43-0.13-0.65-0.2c-0.13-0.04-0.26-0.08-0.38-0.12
		c-0.48-0.14-0.93-0.27-1.37-0.39l-0.02,0l-0.01,0l-0.01,0l-0.02-0.01c-0.06-0.02-0.12-0.03-0.18-0.05
		c-0.1-0.03-0.19-0.05-0.29-0.08l-0.06-0.02l-0.08-0.02c-0.91-0.24-1.83-0.46-2.76-0.68c-0.55-0.13-1.09-0.25-1.64-0.37
		c-0.93-0.2-1.85-0.39-2.78-0.56c-0.35-0.06-0.69-0.12-1.04-0.18l-0.02,0h-0.01h-0.01c-0.34-0.06-0.69-0.12-1.04-0.17
		c-0.16-0.02-0.32-0.05-0.48-0.07c-0.2-0.03-0.41-0.06-0.6-0.09c-0.99-0.14-1.99-0.26-2.99-0.36c-1.93-0.2-3.88-0.34-5.83-0.41
		c-1.08-0.04-2.17-0.06-3.25-0.06c-1.83,0-3.66,0.07-5.48,0.18c-0.19,0.01-0.38,0.02-0.58,0.03c-2.02,0.14-4.03,0.35-6.02,0.63
		c-0.36,0.05-0.71,0.11-1.07,0.16c-0.01,0-0.02,0-0.03,0.01c0,0-0.01,0-0.01,0l0,0l-72.11,72.1L31.03,74.66z"/>
	<path class="st3" d="M201.65,100.89l0.01-0.07l0.01-0.07c0.02-0.12,0.04-0.25,0.05-0.37l0-0.03l0-0.05l0.01-0.05
		c0.02-0.16,0.05-0.32,0.07-0.48l0.01-0.11l0.02-0.11c0.01-0.05,0.01-0.1,0.02-0.15l0.07-0.54l0.05-0.37
		c0.05-0.36,0.08-0.69,0.12-1.03l0-0.05c0.04-0.32,0.07-0.62,0.1-0.93c0.02-0.26,0.05-0.5,0.07-0.73v-0.01l0.02-0.23
		c0.02-0.17,0.03-0.34,0.04-0.51l0-0.06l0-0.07c0.02-0.22,0.04-0.44,0.05-0.65V94.2l0-0.06c0.03-0.32,0.05-0.65,0.07-1.03V93.1
		c0.02-0.34,0.04-0.67,0.06-0.99l0-0.1v-0.13l0-0.13c0.02-0.27,0.03-0.55,0.04-0.83c0.01-0.38,0.02-0.73,0.03-1.09l0-0.05v-0.16
		c0-0.26,0.01-0.52,0.01-0.78v-0.29l0-0.05c0-0.22,0-0.45,0-0.66c0-0.23,0-0.47,0-0.7v-0.02l0-0.22
		c-0.24-16.41-6.82-31.8-18.51-43.34C172.4,32,156.89,25.64,140.44,25.64c-3.8,0-7.56,0.34-11.24,1.01
		c8.51,5.15,15.88,12.04,21.66,20.33c8.39,12.02,12.82,26.14,12.82,40.85c0,14.71-4.43,28.83-12.82,40.85
		c-8.19,11.74-19.55,20.67-32.86,25.82c-8.21,3.18-16.89,4.8-25.79,4.8c-12.99,0-25.46-3.45-36.36-9.91l0.02,0.02l0.05,0.05
		l0.05,0.05c0.05,0.06,0.1,0.11,0.16,0.15l0.17,0.17c0.14,0.14,0.28,0.27,0.42,0.41l0.02,0.02l0.03,0.02
		c0.23,0.22,0.51,0.49,0.78,0.73l0.04,0.03l0.04,0.04c0.18,0.17,0.35,0.33,0.53,0.5l0.01,0.01l0.02,0.01
		c0.31,0.29,0.63,0.57,0.95,0.85l0.02,0.01l0.02,0.02c0.21,0.19,0.42,0.37,0.63,0.56l0.04,0.03L60,153.2l0.01,0l0.61,0.53l0.12,0.11
		l0.03,0.03c0.17,0.14,0.33,0.28,0.5,0.41l0.06,0.05l0.06,0.06c0.14,0.13,0.31,0.26,0.49,0.4l0.06,0.05l0.06,0.05
		c0.13,0.11,0.26,0.22,0.39,0.31l0.04,0.03l0.04,0.03c0.46,0.37,0.94,0.74,1.42,1.11c0.1,0.08,0.21,0.16,0.31,0.24
		c0.12,0.09,0.24,0.18,0.36,0.27c0.07,0.05,0.13,0.1,0.2,0.15l0.12,0.08c0.19,0.14,0.39,0.29,0.58,0.43l0.18,0.13
		c0.1,0.07,0.2,0.14,0.29,0.21l0.04,0.03l0.04,0.03c0.14,0.11,0.29,0.21,0.43,0.31l0.16,0.11c0.35,0.25,0.71,0.5,1.08,0.75
		l0.03,0.02l0.03,0.02c0.16,0.11,0.32,0.22,0.48,0.32l0.12,0.08l0.4,0.26l0.42,0.28c0.21,0.14,0.44,0.29,0.66,0.43
		c0.23,0.15,0.45,0.29,0.67,0.43h0.55l0.98,0.93c0.15,0.09,0.3,0.19,0.46,0.27c0.3,0.18,0.6,0.35,0.9,0.52l0.03,0.02l0.03,0.02
		c0.24,0.14,0.47,0.27,0.72,0.4c1.27,0.72,2.56,1.4,3.85,2.04c0.29,0.14,0.57,0.28,0.85,0.42c0.04,0.02,0.08,0.04,0.13,0.07
		c0.27,0.12,0.53,0.25,0.8,0.38c0.81,0.38,1.64,0.75,2.46,1.1l0.02,0l0.02,0.01c0.2,0.09,0.41,0.18,0.61,0.26
		c0.06,0.02,0.13,0.05,0.2,0.08c0.27,0.11,0.54,0.22,0.81,0.33c0.66,0.27,1.38,0.55,2.14,0.83l0.02,0.01l0.02,0.01
		c0.23,0.09,0.46,0.18,0.7,0.26l0.03,0.01l0.03,0.01c1.1,0.4,2.19,0.78,3.24,1.11l0.04,0.01l0.03,0.01c0.21,0.07,0.42,0.14,0.64,0.2
		l0.03,0l0.03,0.01c0.32,0.1,0.64,0.2,0.96,0.3l0.27,0.08c0.39,0.11,0.77,0.22,1.15,0.33c0.21,0.06,0.4,0.11,0.59,0.16l0.05,0.01
		c2.38,0.64,4.8,1.18,7.18,1.6l0.03,0.01l0.03,0c0.29,0.05,0.6,0.11,0.99,0.17h0.02l0.02,0c0.39,0.06,0.71,0.12,1,0.16l0.05,0
		l0.05,0.01c0.33,0.06,0.67,0.1,1.01,0.15l0.03,0c3.98,0.55,8.03,0.84,12.07,0.84c4.04,0,8.1-0.28,12.08-0.84l0.08-0.01
		c0.32-0.05,0.64-0.09,0.95-0.14l0.05-0.01l0.03,0l72.11-72.11C201.63,100.97,201.64,100.93,201.65,100.89z"/>
</g>
</svg>
